<?xml version="1.0" encoding="UTF-8"?>
<!DOCTYPE svg PUBLIC "-//W3C//DTD SVG 1.1//EN" "http://www.w3.org/Graphics/SVG/1.1/DTD/svg11.dtd">
<svg version="1.1" xmlns="http://www.w3.org/2000/svg" xmlns:xlink="http://www.w3.org/1999/xlink" x="0" y="0" width="460" height="52" viewBox="0, 0, 460, 52">
  <g id="Layer_1" transform="translate(-132.333, 415)">
    <g>
      <path d="M169.222,-380.6 L160.726,-380.6 L159.526,-373.784 Q159.43,-373.16 158.782,-372.704 Q158.134,-372.248 157.318,-372.2 L152.23,-372.2 L157.798,-404.168 L154.822,-405.8 L176.662,-405.8 Q176.71,-405.8 177.262,-405.8 Q177.814,-405.8 178.03,-405.8 Q178.246,-405.8 178.75,-405.752 Q179.254,-405.704 179.494,-405.608 Q179.734,-405.512 180.022,-405.344 Q180.31,-405.176 180.382,-404.888 Q180.454,-404.6 180.406,-404.216 L175.078,-373.784 Q175.03,-373.448 174.814,-373.16 Q174.598,-372.872 174.286,-372.656 Q173.974,-372.44 173.566,-372.32 Q173.158,-372.2 172.726,-372.2 L167.782,-372.2 z M170.134,-385.832 L172.726,-400.568 L164.23,-400.568 L161.638,-385.832 z" fill="#FFFFFF"/>
      <path d="M208.47,-402.344 Q209.574,-401.72 209.334,-400.52 L205.158,-376.712 Q205.062,-376.136 204.678,-375.752 Q204.054,-375.176 202.782,-373.976 Q201.51,-372.776 201.462,-372.68 Q200.934,-372.2 200.262,-372.2 L181.83,-372.2 L182.358,-375.224 L183.174,-380.024 L183.942,-384.488 L186.822,-400.904 L187.014,-401.816 L187.398,-404.12 L184.374,-405.8 L201.942,-405.8 Q202.23,-405.8 202.47,-405.656 L206.022,-403.688 z M198.534,-378.872 L202.038,-398.936 L201.51,-399.224 L200.646,-399.656 L199.014,-400.568 L193.782,-400.568 L193.638,-399.608 L193.11,-396.584 L192.966,-395.672 L190.182,-380.024 L189.75,-377.432 L196.998,-377.432 Q197.718,-378.104 198.534,-378.872 z" fill="#FFFFFF"/>
      <path d="M236.918,-402.344 Q238.022,-401.72 237.782,-400.52 L233.606,-376.712 Q233.51,-376.136 233.126,-375.752 Q232.502,-375.176 231.23,-373.976 Q229.958,-372.776 229.91,-372.68 Q229.382,-372.2 228.71,-372.2 L210.278,-372.2 L210.806,-375.224 L211.622,-380.024 L212.39,-384.488 L215.27,-400.904 L215.462,-401.816 L215.846,-404.12 L212.822,-405.8 L230.39,-405.8 Q230.678,-405.8 230.918,-405.656 L234.47,-403.688 z M226.982,-378.872 L230.486,-398.936 L229.958,-399.224 L229.094,-399.656 L227.462,-400.568 L222.23,-400.568 L222.086,-399.608 L221.558,-396.584 L221.414,-395.672 L218.63,-380.024 L218.198,-377.432 L225.446,-377.432 Q226.166,-378.104 226.982,-378.872 z" fill="#FFFFFF"/>
      <path d="M272.31,-387.512 L269.958,-373.784 Q269.814,-373.112 269.118,-372.656 Q268.422,-372.2 267.558,-372.2 L262.614,-372.2 L265.302,-387.512 L260.742,-403.352 L256.278,-405.8 L267.126,-405.8 L270.054,-395.096 L273.942,-401.192 L276.918,-405.8 L281.862,-405.8 Q282.726,-405.8 283.038,-405.344 Q283.35,-404.888 282.966,-404.216 z" fill="#FFFFFF"/>
      <path d="M305.174,-373.784 Q305.03,-373.112 304.334,-372.656 Q303.638,-372.2 302.774,-372.2 L285.158,-372.2 L284.39,-372.2 Q283.526,-372.2 282.998,-372.656 Q282.47,-373.112 282.566,-373.784 L282.662,-374.312 L287.366,-401 L287.894,-404.12 L284.87,-405.8 L308.678,-405.8 Q309.206,-405.8 309.662,-405.584 Q310.118,-405.368 310.334,-405.008 Q310.55,-404.648 310.502,-404.264 z M294.326,-400.568 L290.246,-377.432 L298.79,-377.432 L302.822,-400.568 z" fill="#FFFFFF"/>
      <path d="M333.382,-405.8 L338.278,-405.8 Q339.19,-405.8 339.718,-405.344 Q340.246,-404.888 340.15,-404.216 L334.918,-374.264 L334.822,-373.784 Q334.678,-373.112 333.982,-372.656 Q333.286,-372.2 332.422,-372.2 L311.974,-372.2 L317.542,-404.12 L314.566,-405.8 L322.774,-405.8 Q323.35,-405.8 323.782,-405.584 Q324.214,-405.368 324.454,-405.008 Q324.694,-404.648 324.598,-404.216 L319.894,-377.432 L328.438,-377.432 z" fill="#FFFFFF"/>
      <path d="M367.878,-405.8 Q368.742,-405.8 369.294,-405.344 Q369.846,-404.888 369.702,-404.216 L368.982,-400.136 L368.886,-399.416 L366.726,-386.456 L366.006,-382.424 Q365.958,-382.136 365.742,-381.848 Q365.526,-381.56 365.214,-381.344 Q364.902,-381.128 364.494,-381.008 Q364.086,-380.888 363.654,-380.888 L359.958,-380.888 L364.134,-372.2 L356.646,-372.2 L352.47,-380.888 L350.166,-380.888 L348.918,-373.784 Q348.87,-373.496 348.678,-373.208 Q348.006,-372.2 346.518,-372.2 L341.622,-372.2 L346.422,-399.656 L346.662,-401.24 L347.19,-404.168 L344.262,-405.8 z M353.526,-400.184 L351.27,-386.6 L359.718,-386.6 L361.974,-400.184 z" fill="#FFFFFF"/>
      <path d="M408.742,-373.784 Q408.598,-373.112 407.902,-372.656 Q407.206,-372.2 406.342,-372.2 L388.726,-372.2 L387.958,-372.2 Q387.094,-372.2 386.566,-372.656 Q386.038,-373.112 386.134,-373.784 L386.23,-374.312 L390.934,-401 L391.462,-404.12 L388.438,-405.8 L412.246,-405.8 Q412.774,-405.8 413.23,-405.584 Q413.686,-405.368 413.902,-405.008 Q414.118,-404.648 414.07,-404.264 z M397.894,-400.568 L393.814,-377.432 L402.358,-377.432 L406.39,-400.568 z" fill="#FFFFFF"/>
      <path d="M440.79,-387.32 Q440.646,-386.696 439.95,-386.24 Q439.254,-385.784 438.39,-385.784 L424.95,-385.784 L422.838,-373.736 Q422.742,-373.112 422.046,-372.656 Q421.35,-372.2 420.486,-372.2 L415.542,-372.2 L421.11,-404.12 L418.134,-405.8 L441.894,-405.8 Q442.758,-405.8 443.286,-405.344 Q443.814,-404.888 443.718,-404.216 z M425.91,-391.16 L434.406,-391.16 L436.038,-400.568 L427.542,-400.568 z" fill="#FFFFFF"/>
      <path d="M470.438,-405.8 L469.814,-402.104 Q469.67,-401.48 468.974,-401.024 Q468.278,-400.568 467.414,-400.568 L462.422,-400.568 L457.718,-373.736 Q457.622,-373.112 456.926,-372.656 Q456.23,-372.2 455.366,-372.2 L450.422,-372.2 L455.366,-400.568 L448.31,-400.568 L448.934,-404.168 L445.958,-405.8 z" fill="#FFFFFF"/>
      <path d="M471.19,-372.2 L476.758,-404.12 L473.734,-405.8 L481.99,-405.8 Q482.854,-405.8 483.382,-405.344 Q483.91,-404.888 483.814,-404.216 L478.486,-373.736 Q478.39,-373.16 477.79,-372.728 Q477.19,-372.296 476.422,-372.2 z" fill="#FFFFFF"/>
      <path d="M508.134,-373.784 Q507.99,-373.112 507.294,-372.656 Q506.598,-372.2 505.734,-372.2 L488.118,-372.2 L487.35,-372.2 Q486.486,-372.2 485.958,-372.656 Q485.43,-373.112 485.526,-373.784 L485.622,-374.312 L490.326,-401 L490.854,-404.12 L487.83,-405.8 L511.638,-405.8 Q512.166,-405.8 512.622,-405.584 Q513.078,-405.368 513.294,-405.008 Q513.51,-404.648 513.462,-404.264 z M497.286,-400.568 L493.206,-377.432 L501.75,-377.432 L505.782,-400.568 z" fill="#FFFFFF"/>
      <path d="M519.878,-372.2 L514.934,-372.2 L520.502,-404.12 L517.526,-405.8 L527.846,-405.8 L533.174,-388.184 L536.294,-405.8 L540.662,-405.8 Q542.534,-405.752 542.846,-405.08 Q543.158,-404.408 542.678,-402.248 Q542.582,-401.72 542.534,-401.432 L537.446,-372.2 L530.39,-372.2 L525.158,-390.488 L522.23,-373.736 Q522.134,-373.112 521.438,-372.656 Q520.742,-372.2 519.878,-372.2 z" fill="#FFFFFF"/>
      <path d="M564.742,-400.568 L556.294,-400.568 L555.814,-397.784 L555.718,-397.4 L568.822,-383.72 L567.094,-373.784 Q566.998,-373.352 566.662,-372.992 Q566.326,-372.632 565.798,-372.416 Q565.27,-372.2 564.694,-372.2 L544.294,-372.2 L545.494,-379.016 Q545.59,-379.688 546.286,-380.144 Q546.982,-380.6 547.846,-380.6 L552.79,-380.6 L552.214,-377.432 L560.662,-377.432 L561.238,-380.552 L548.134,-394.28 L549.862,-404.12 L546.886,-405.8 L570.55,-405.8 Q571.462,-405.8 571.99,-405.344 Q572.518,-404.888 572.422,-404.216 L571.462,-398.936 Q571.366,-398.312 570.67,-397.856 Q569.974,-397.4 569.11,-397.4 L564.166,-397.4 z" fill="#FFFFFF"/>
    </g>
  </g>
</svg>
