<?xml version="1.0" encoding="UTF-8"?>
<!DOCTYPE svg PUBLIC "-//W3C//DTD SVG 1.1//EN" "http://www.w3.org/Graphics/SVG/1.1/DTD/svg11.dtd">
<svg version="1.1" xmlns="http://www.w3.org/2000/svg" xmlns:xlink="http://www.w3.org/1999/xlink" x="0" y="0" width="460" height="52" viewBox="0, 0, 460, 52">
  <g id="Layer_1" transform="translate(-145.669, 260.258)">
    <g>
      <path d="M191.933,-222.692 L202.301,-222.692 Q203.165,-222.692 203.717,-222.236 Q204.269,-221.78 204.125,-221.108 L203.501,-217.46 L183.965,-217.46 L189.533,-249.38 L186.557,-251.06 L194.765,-251.06 Q195.629,-251.06 196.157,-250.604 Q196.685,-250.148 196.589,-249.476 z" fill="#FFFFFF"/>
      <path d="M208.045,-217.46 L213.613,-249.38 L210.589,-251.06 L218.845,-251.06 Q219.709,-251.06 220.237,-250.604 Q220.765,-250.148 220.669,-249.476 L215.341,-218.996 Q215.245,-218.42 214.645,-217.988 Q214.045,-217.556 213.277,-217.46 z" fill="#FFFFFF"/>
      <path d="M241.293,-251.06 L246.237,-251.06 Q247.101,-251.06 247.533,-250.604 Q247.965,-250.148 247.725,-249.476 L236.013,-218.996 Q235.773,-218.372 234.981,-217.916 Q234.189,-217.46 233.325,-217.46 L228.381,-217.46 L228.429,-217.556 L227.277,-249.188 L223.917,-251.06 L234.333,-251.06 L234.861,-234.308 z" fill="#FFFFFF"/>
      <path d="M259.565,-245.828 L257.885,-236.324 L266.381,-236.324 L265.469,-231.092 L256.973,-231.092 L255.485,-222.692 L268.205,-222.692 Q268.109,-222.116 267.965,-221.204 Q267.533,-218.372 266.789,-217.892 Q266.045,-217.412 262.157,-217.46 Q260.957,-217.46 260.285,-217.46 L247.565,-217.46 L253.133,-249.38 L250.157,-251.06 L269.885,-251.06 Q270.653,-251.06 271.157,-250.988 Q271.661,-250.916 272.045,-250.844 Q272.429,-250.772 272.597,-250.508 Q272.765,-250.244 272.861,-250.076 Q272.957,-249.908 272.885,-249.38 Q272.813,-248.852 272.765,-248.492 Q272.717,-248.132 272.525,-247.292 Q272.333,-246.452 272.237,-245.828 z" fill="#FFFFFF"/>
      <path d="M305.661,-232.772 L303.309,-219.044 Q303.165,-218.372 302.469,-217.916 Q301.773,-217.46 300.909,-217.46 L295.965,-217.46 L298.653,-232.772 L294.093,-248.612 L289.629,-251.06 L300.477,-251.06 L303.405,-240.356 L307.293,-246.452 L310.269,-251.06 L315.213,-251.06 Q316.077,-251.06 316.389,-250.604 Q316.701,-250.148 316.317,-249.476 z" fill="#FFFFFF"/>
      <path d="M338.525,-219.044 Q338.381,-218.372 337.685,-217.916 Q336.989,-217.46 336.125,-217.46 L318.509,-217.46 L317.741,-217.46 Q316.877,-217.46 316.349,-217.916 Q315.821,-218.372 315.917,-219.044 L316.013,-219.572 L320.717,-246.26 L321.245,-249.38 L318.221,-251.06 L342.029,-251.06 Q342.557,-251.06 343.013,-250.844 Q343.469,-250.628 343.685,-250.268 Q343.901,-249.908 343.853,-249.524 z M327.677,-245.828 L323.597,-222.692 L332.141,-222.692 L336.173,-245.828 z" fill="#FFFFFF"/>
      <path d="M366.733,-251.06 L371.629,-251.06 Q372.541,-251.06 373.069,-250.604 Q373.597,-250.148 373.501,-249.476 L368.269,-219.524 L368.173,-219.044 Q368.029,-218.372 367.333,-217.916 Q366.637,-217.46 365.773,-217.46 L345.325,-217.46 L350.893,-249.38 L347.917,-251.06 L356.125,-251.06 Q356.701,-251.06 357.133,-250.844 Q357.565,-250.628 357.805,-250.268 Q358.045,-249.908 357.949,-249.476 L353.245,-222.692 L361.789,-222.692 z" fill="#FFFFFF"/>
      <path d="M401.229,-251.06 Q402.093,-251.06 402.645,-250.604 Q403.197,-250.148 403.053,-249.476 L402.333,-245.396 L402.237,-244.676 L400.077,-231.716 L399.357,-227.684 Q399.309,-227.396 399.093,-227.108 Q398.877,-226.82 398.565,-226.604 Q398.253,-226.388 397.845,-226.268 Q397.437,-226.148 397.005,-226.148 L393.309,-226.148 L397.485,-217.46 L389.997,-217.46 L385.821,-226.148 L383.517,-226.148 L382.269,-219.044 Q382.221,-218.756 382.029,-218.468 Q381.357,-217.46 379.869,-217.46 L374.973,-217.46 L379.773,-244.916 L380.013,-246.5 L380.541,-249.428 L377.613,-251.06 z M386.877,-245.444 L384.621,-231.86 L393.069,-231.86 L395.325,-245.444 z" fill="#FFFFFF"/>
      <path d="M445.885,-247.604 Q446.989,-246.98 446.749,-245.78 L442.573,-221.972 Q442.477,-221.396 442.093,-221.012 Q441.469,-220.436 440.197,-219.236 Q438.925,-218.036 438.877,-217.94 Q438.349,-217.46 437.677,-217.46 L419.245,-217.46 L419.773,-220.484 L420.589,-225.284 L421.357,-229.748 L424.237,-246.164 L424.429,-247.076 L424.813,-249.38 L421.789,-251.06 L439.357,-251.06 Q439.645,-251.06 439.885,-250.916 L443.437,-248.948 z M435.949,-224.132 L439.453,-244.196 L438.925,-244.484 L438.061,-244.916 L436.429,-245.828 L431.197,-245.828 L431.053,-244.868 L430.525,-241.844 L430.381,-240.932 L427.597,-225.284 L427.165,-222.692 L434.413,-222.692 Q435.133,-223.364 435.949,-224.132 z" fill="#FFFFFF"/>
      <path d="M473.949,-251.06 Q474.813,-251.06 475.365,-250.604 Q475.917,-250.148 475.773,-249.476 L475.053,-245.396 L474.957,-244.676 L472.797,-231.716 L472.077,-227.684 Q472.029,-227.396 471.813,-227.108 Q471.597,-226.82 471.285,-226.604 Q470.973,-226.388 470.565,-226.268 Q470.157,-226.148 469.725,-226.148 L466.029,-226.148 L470.205,-217.46 L462.717,-217.46 L458.541,-226.148 L456.237,-226.148 L454.989,-219.044 Q454.941,-218.756 454.749,-218.468 Q454.077,-217.46 452.589,-217.46 L447.693,-217.46 L452.493,-244.916 L452.733,-246.5 L453.261,-249.428 L450.333,-251.06 z M459.597,-245.444 L457.341,-231.86 L465.789,-231.86 L468.045,-245.444 z" fill="#FFFFFF"/>
      <path d="M489.005,-245.828 L487.325,-236.324 L495.821,-236.324 L494.909,-231.092 L486.413,-231.092 L484.925,-222.692 L497.645,-222.692 Q497.549,-222.116 497.405,-221.204 Q496.973,-218.372 496.229,-217.892 Q495.485,-217.412 491.597,-217.46 Q490.397,-217.46 489.725,-217.46 L477.005,-217.46 L482.573,-249.38 L479.597,-251.06 L499.325,-251.06 Q500.093,-251.06 500.597,-250.988 Q501.101,-250.916 501.485,-250.844 Q501.869,-250.772 502.037,-250.508 Q502.205,-250.244 502.301,-250.076 Q502.397,-249.908 502.325,-249.38 Q502.253,-248.852 502.205,-248.492 Q502.157,-248.132 501.965,-247.292 Q501.773,-246.452 501.677,-245.828 z" fill="#FFFFFF"/>
      <path d="M519.469,-225.86 L510.973,-225.86 L509.773,-219.044 Q509.677,-218.42 509.029,-217.964 Q508.381,-217.508 507.565,-217.46 L502.477,-217.46 L508.045,-249.428 L505.069,-251.06 L526.909,-251.06 Q526.957,-251.06 527.509,-251.06 Q528.061,-251.06 528.277,-251.06 Q528.493,-251.06 528.997,-251.012 Q529.501,-250.964 529.741,-250.868 Q529.981,-250.772 530.269,-250.604 Q530.557,-250.436 530.629,-250.148 Q530.701,-249.86 530.653,-249.476 L525.325,-219.044 Q525.277,-218.708 525.061,-218.42 Q524.845,-218.132 524.533,-217.916 Q524.221,-217.7 523.813,-217.58 Q523.405,-217.46 522.973,-217.46 L518.029,-217.46 z M520.381,-231.092 L522.973,-245.828 L514.477,-245.828 L511.885,-231.092 z" fill="#FFFFFF"/>
      <path d="M537.021,-217.46 L532.077,-217.46 L537.645,-249.38 L534.669,-251.06 L544.989,-251.06 L550.365,-237.524 L560.589,-251.06 L565.533,-251.06 Q566.397,-251.06 566.925,-250.604 Q567.453,-250.148 567.357,-249.476 L562.029,-219.044 Q561.933,-218.372 561.237,-217.916 Q560.541,-217.46 559.677,-217.46 L554.733,-217.46 L558.429,-238.724 L552.765,-231.092 L545.757,-231.092 L542.829,-238.724 Q542.301,-235.748 541.149,-229.124 Q539.997,-222.5 539.373,-219.044 Q539.277,-218.372 538.581,-217.916 Q537.885,-217.46 537.021,-217.46 z" fill="#FFFFFF"/>
    </g>
  </g>
</svg>
