<?xml version="1.0" encoding="UTF-8"?>
<!DOCTYPE svg PUBLIC "-//W3C//DTD SVG 1.1//EN" "http://www.w3.org/Graphics/SVG/1.1/DTD/svg11.dtd">
<svg version="1.1" xmlns="http://www.w3.org/2000/svg" xmlns:xlink="http://www.w3.org/1999/xlink" x="0" y="0" width="460" height="52" viewBox="0, 0, 460, 52">
  <g id="Layer_1" transform="translate(-154, 506)">
    <g>
      <path d="M181.313,-491.57 L172.865,-491.57 L172.385,-488.786 L172.289,-488.402 L185.393,-474.722 L183.665,-464.786 Q183.569,-464.354 183.233,-463.994 Q182.897,-463.634 182.369,-463.418 Q181.841,-463.202 181.265,-463.202 L160.865,-463.202 L162.065,-470.018 Q162.161,-470.69 162.857,-471.146 Q163.553,-471.602 164.417,-471.602 L169.361,-471.602 L168.785,-468.434 L177.233,-468.434 L177.809,-471.554 L164.705,-485.282 L166.433,-495.122 L163.457,-496.802 L187.121,-496.802 Q188.033,-496.802 188.561,-496.346 Q189.089,-495.89 188.993,-495.218 L188.033,-489.938 Q187.937,-489.314 187.241,-488.858 Q186.545,-488.402 185.681,-488.402 L180.737,-488.402 z" fill="#FFFFFF"/>
      <path d="M201.697,-491.57 L200.017,-482.066 L208.513,-482.066 L207.601,-476.834 L199.105,-476.834 L197.617,-468.434 L210.337,-468.434 Q210.241,-467.858 210.097,-466.946 Q209.665,-464.114 208.921,-463.634 Q208.177,-463.154 204.289,-463.202 Q203.089,-463.202 202.417,-463.202 L189.697,-463.202 L195.265,-495.122 L192.289,-496.802 L212.017,-496.802 Q212.785,-496.802 213.289,-496.73 Q213.793,-496.658 214.177,-496.586 Q214.561,-496.514 214.729,-496.25 Q214.897,-495.986 214.993,-495.818 Q215.089,-495.65 215.017,-495.122 Q214.945,-494.594 214.897,-494.234 Q214.849,-493.874 214.657,-493.034 Q214.465,-492.194 214.369,-491.57 z" fill="#FFFFFF"/>
      <path d="M223.137,-468.434 L233.505,-468.434 Q234.369,-468.434 234.921,-467.978 Q235.473,-467.522 235.329,-466.85 L234.705,-463.202 L215.169,-463.202 L220.737,-495.122 L217.761,-496.802 L225.969,-496.802 Q226.833,-496.802 227.361,-496.346 Q227.889,-495.89 227.793,-495.218 z" fill="#FFFFFF"/>
      <path d="M251.249,-491.57 L249.569,-482.066 L258.065,-482.066 L257.153,-476.834 L248.657,-476.834 L247.169,-468.434 L259.889,-468.434 Q259.793,-467.858 259.649,-466.946 Q259.217,-464.114 258.473,-463.634 Q257.729,-463.154 253.841,-463.202 Q252.641,-463.202 251.969,-463.202 L239.249,-463.202 L244.817,-495.122 L241.841,-496.802 L261.569,-496.802 Q262.337,-496.802 262.841,-496.73 Q263.345,-496.658 263.729,-496.586 Q264.113,-496.514 264.281,-496.25 Q264.449,-495.986 264.545,-495.818 Q264.641,-495.65 264.569,-495.122 Q264.497,-494.594 264.449,-494.234 Q264.401,-493.874 264.209,-493.034 Q264.017,-492.194 263.921,-491.57 z" fill="#FFFFFF"/>
      <path d="M281.137,-468.434 L281.713,-471.602 L284.305,-471.602 Q284.401,-471.602 284.593,-471.602 Q285.601,-471.602 286.033,-471.602 Q286.465,-471.602 287.065,-471.506 Q287.665,-471.41 287.857,-471.386 Q288.049,-471.362 288.289,-471.05 Q288.529,-470.738 288.529,-470.546 Q288.529,-470.354 288.505,-469.73 Q288.481,-469.106 288.385,-468.65 Q288.289,-468.194 288.097,-467.186 Q287.809,-465.698 287.665,-464.786 Q287.425,-463.346 284.977,-463.202 L264.769,-463.202 L270.337,-495.122 L267.361,-496.802 L291.169,-496.802 Q292.033,-496.802 292.561,-496.346 Q293.089,-495.89 292.993,-495.266 Q292.849,-494.306 292.609,-492.77 Q292.081,-489.458 291.361,-488.906 Q290.641,-488.354 286.753,-488.402 Q285.409,-488.402 284.641,-488.402 L285.217,-491.57 L276.769,-491.57 L272.689,-468.434 z" fill="#FFFFFF"/>
      <path d="M319.665,-496.802 L319.041,-493.106 Q318.897,-492.482 318.201,-492.026 Q317.505,-491.57 316.641,-491.57 L311.649,-491.57 L306.945,-464.738 Q306.849,-464.114 306.153,-463.658 Q305.457,-463.202 304.593,-463.202 L299.649,-463.202 L304.593,-491.57 L297.537,-491.57 L298.161,-495.17 L295.185,-496.802 z" fill="#FFFFFF"/>
      <path d="M353.041,-478.514 L350.689,-464.786 Q350.545,-464.114 349.849,-463.658 Q349.153,-463.202 348.289,-463.202 L343.345,-463.202 L346.033,-478.514 L341.473,-494.354 L337.009,-496.802 L347.857,-496.802 L350.785,-486.098 L354.673,-492.194 L357.649,-496.802 L362.593,-496.802 Q363.457,-496.802 363.769,-496.346 Q364.081,-495.89 363.697,-495.218 z" fill="#FFFFFF"/>
      <path d="M385.905,-464.786 Q385.761,-464.114 385.065,-463.658 Q384.369,-463.202 383.505,-463.202 L365.889,-463.202 L365.121,-463.202 Q364.257,-463.202 363.729,-463.658 Q363.201,-464.114 363.297,-464.786 L363.393,-465.314 L368.097,-492.002 L368.625,-495.122 L365.601,-496.802 L389.409,-496.802 Q389.937,-496.802 390.393,-496.586 Q390.849,-496.37 391.065,-496.01 Q391.281,-495.65 391.233,-495.266 z M375.057,-491.57 L370.977,-468.434 L379.521,-468.434 L383.553,-491.57 z" fill="#FFFFFF"/>
      <path d="M414.113,-496.802 L419.009,-496.802 Q419.921,-496.802 420.449,-496.346 Q420.977,-495.89 420.881,-495.218 L415.649,-465.266 L415.553,-464.786 Q415.409,-464.114 414.713,-463.658 Q414.017,-463.202 413.153,-463.202 L392.705,-463.202 L398.273,-495.122 L395.297,-496.802 L403.505,-496.802 Q404.081,-496.802 404.513,-496.586 Q404.945,-496.37 405.185,-496.01 Q405.425,-495.65 405.329,-495.218 L400.625,-468.434 L409.169,-468.434 z" fill="#FFFFFF"/>
      <path d="M448.609,-496.802 Q449.473,-496.802 450.025,-496.346 Q450.577,-495.89 450.433,-495.218 L449.713,-491.138 L449.617,-490.418 L447.457,-477.458 L446.737,-473.426 Q446.689,-473.138 446.473,-472.85 Q446.257,-472.562 445.945,-472.346 Q445.633,-472.13 445.225,-472.01 Q444.817,-471.89 444.385,-471.89 L440.689,-471.89 L444.865,-463.202 L437.377,-463.202 L433.201,-471.89 L430.897,-471.89 L429.649,-464.786 Q429.601,-464.498 429.409,-464.21 Q428.737,-463.202 427.249,-463.202 L422.353,-463.202 L427.153,-490.658 L427.393,-492.242 L427.921,-495.17 L424.993,-496.802 z M434.257,-491.186 L432.001,-477.602 L440.449,-477.602 L442.705,-491.186 z" fill="#FFFFFF"/>
      <path d="M471.569,-463.202 L466.625,-463.202 L472.193,-495.122 L469.217,-496.802 L479.537,-496.802 L484.913,-483.266 L495.137,-496.802 L500.081,-496.802 Q500.945,-496.802 501.473,-496.346 Q502.001,-495.89 501.905,-495.218 L496.577,-464.786 Q496.481,-464.114 495.785,-463.658 Q495.089,-463.202 494.225,-463.202 L489.281,-463.202 L492.977,-484.466 L487.313,-476.834 L480.305,-476.834 L477.377,-484.466 Q476.849,-481.49 475.697,-474.866 Q474.545,-468.242 473.921,-464.786 Q473.825,-464.114 473.129,-463.658 Q472.433,-463.202 471.569,-463.202 z" fill="#FFFFFF"/>
      <path d="M526.225,-464.786 Q526.081,-464.114 525.385,-463.658 Q524.689,-463.202 523.825,-463.202 L506.209,-463.202 L505.441,-463.202 Q504.577,-463.202 504.049,-463.658 Q503.521,-464.114 503.617,-464.786 L503.713,-465.314 L508.417,-492.002 L508.945,-495.122 L505.921,-496.802 L529.729,-496.802 Q530.257,-496.802 530.713,-496.586 Q531.169,-496.37 531.385,-496.01 Q531.601,-495.65 531.553,-495.266 z M515.377,-491.57 L511.297,-468.434 L519.841,-468.434 L523.873,-491.57 z" fill="#FFFFFF"/>
      <path d="M559.665,-493.346 Q560.769,-492.722 560.529,-491.522 L556.353,-467.714 Q556.257,-467.138 555.873,-466.754 Q555.249,-466.178 553.977,-464.978 Q552.705,-463.778 552.657,-463.682 Q552.129,-463.202 551.457,-463.202 L533.025,-463.202 L533.553,-466.226 L534.369,-471.026 L535.137,-475.49 L538.017,-491.906 L538.209,-492.818 L538.593,-495.122 L535.569,-496.802 L553.137,-496.802 Q553.425,-496.802 553.665,-496.658 L557.217,-494.69 z M549.729,-469.874 L553.233,-489.938 L552.705,-490.226 L551.841,-490.658 L550.209,-491.57 L544.977,-491.57 L544.833,-490.61 L544.305,-487.586 L544.161,-486.674 L541.377,-471.026 L540.945,-468.434 L548.193,-468.434 Q548.913,-469.106 549.729,-469.874 z" fill="#FFFFFF"/>
      <path d="M573.473,-491.57 L571.793,-482.066 L580.289,-482.066 L579.377,-476.834 L570.881,-476.834 L569.393,-468.434 L582.113,-468.434 Q582.017,-467.858 581.873,-466.946 Q581.441,-464.114 580.697,-463.634 Q579.953,-463.154 576.065,-463.202 Q574.865,-463.202 574.193,-463.202 L561.473,-463.202 L567.041,-495.122 L564.065,-496.802 L583.793,-496.802 Q584.561,-496.802 585.065,-496.73 Q585.569,-496.658 585.953,-496.586 Q586.337,-496.514 586.505,-496.25 Q586.673,-495.986 586.769,-495.818 Q586.865,-495.65 586.793,-495.122 Q586.721,-494.594 586.673,-494.234 Q586.625,-493.874 586.433,-493.034 Q586.241,-492.194 586.145,-491.57 z" fill="#FFFFFF"/>
      <path d="M594.913,-468.434 L605.281,-468.434 Q606.145,-468.434 606.697,-467.978 Q607.249,-467.522 607.105,-466.85 L606.481,-463.202 L586.945,-463.202 L592.513,-495.122 L589.537,-496.802 L597.745,-496.802 Q598.609,-496.802 599.137,-496.346 Q599.665,-495.89 599.569,-495.218 z" fill="#FFFFFF"/>
    </g>
  </g>
</svg>
