<?xml version="1.0" encoding="UTF-8"?>
<!DOCTYPE svg PUBLIC "-//W3C//DTD SVG 1.1//EN" "http://www.w3.org/Graphics/SVG/1.1/DTD/svg11.dtd">
<svg version="1.1" xmlns="http://www.w3.org/2000/svg" xmlns:xlink="http://www.w3.org/1999/xlink" x="0" y="0" width="348.662" height="35.287" viewBox="0, 0, 1162.205, 117.622">
  <g id="Layer_1" transform="translate(-24.008, 241.609)">
    <g>
      <path d="M98.153,-241.609 L252.338,-241.609 L242.578,-212.205 L143.036,-212.205 L143.036,-212.201 L88.398,-212.201 z M133.281,-182.796 L125.932,-160.648 C124.542,-156.46 126.936,-153.392 131.33,-153.392 L223.069,-153.392 L213.309,-123.987 L88.631,-123.987 C76.695,-123.987 63.438,-136.967 69.097,-154.027 L78.643,-182.796 z" fill="#FFFFFF"/>
      <path d="M270.39,-241.609 L325.029,-241.609 L298.169,-160.648 C296.78,-156.46 299.173,-153.392 303.567,-153.392 L395.306,-153.392 L385.546,-123.987 L260.868,-123.987 C248.932,-123.987 235.675,-136.967 241.333,-154.027 z" fill="#FFFFFF"/>
      <path d="M706.755,-123.987 L575.848,-123.987 L585.607,-153.391 L679.33,-153.391 C682.859,-153.391 685.859,-155.539 686.96,-158.857 L690.025,-168.093 L607.112,-168.093 C603.125,-168.093 599.695,-169.825 597.354,-173.015 C595.017,-176.207 594.422,-179.97 595.663,-183.713 L607.614,-219.742 C612.017,-233.011 624.017,-241.605 638.145,-241.605 L769.053,-241.605 L759.294,-212.2 L665.57,-212.2 C662.036,-212.2 659.037,-210.053 657.937,-206.735 L654.872,-197.498 L737.787,-197.498 C741.776,-197.498 745.205,-195.767 747.547,-192.576 C749.884,-189.385 750.479,-185.622 749.237,-181.88 L737.285,-145.85 C732.884,-132.581 720.884,-123.987 706.755,-123.987" fill="#FFFFFF"/>
      <path d="M878.988,-123.987 L748.081,-123.987 L757.84,-153.391 L851.562,-153.391 C855.092,-153.391 858.092,-155.539 859.193,-158.857 L862.258,-168.093 L779.345,-168.093 C775.357,-168.093 771.927,-169.825 769.587,-173.015 C767.25,-176.207 766.655,-179.97 767.896,-183.713 L779.847,-219.742 C784.249,-233.011 796.249,-241.605 810.378,-241.605 L941.285,-241.605 L931.526,-212.2 L837.803,-212.2 C834.269,-212.2 831.269,-210.053 830.169,-206.735 L827.104,-197.498 L910.02,-197.498 C914.009,-197.498 917.438,-195.767 919.779,-192.576 C922.117,-189.385 922.711,-185.622 921.469,-181.88 L909.518,-145.85 C905.117,-132.581 893.117,-123.987 878.988,-123.987" fill="#FFFFFF"/>
      <path d="M959.338,-241.609 L1013.977,-241.609 C1000.969,-202.401 987.96,-163.196 974.952,-123.987 L920.31,-123.987 z" fill="#FFFFFF"/>
      <path d="M1032.028,-241.609 L1186.213,-241.609 L1176.454,-212.205 L1076.912,-212.205 L1059.807,-160.648 C1058.418,-156.46 1060.811,-153.392 1065.205,-153.392 L1156.944,-153.392 L1147.185,-123.987 L1022.506,-123.987 C1010.57,-123.987 997.313,-136.967 1002.971,-154.027 z" fill="#FFFFFF"/>
      <path d="M503.141,-123.987 L512.896,-153.391 L467.988,-153.391 L458.233,-123.987 L403.602,-123.987 L423.113,-182.796 L477.744,-182.796 L481.76,-182.796 L522.651,-182.796 L532.406,-212.2 L491.511,-212.2 L487.494,-212.2 L432.864,-212.2 L435.366,-219.742 C439.767,-233.011 451.767,-241.605 465.896,-241.605 L596.804,-241.605 L557.779,-123.987 z" fill="#FFFFFF"/>
      <path d="M432.864,-212.201 L378.234,-212.201 C374.985,-202.401 371.732,-192.597 368.483,-182.796 L423.113,-182.796 z" fill="#FFFFFF"/>
      <path d="M88.39,-212.201 L33.759,-212.201 C30.511,-202.401 27.258,-192.597 24.008,-182.796 L78.639,-182.796 z" fill="#FFFFFF"/>
    </g>
  </g>
</svg>
