<?xml version="1.0" encoding="UTF-8"?>
<!DOCTYPE svg PUBLIC "-//W3C//DTD SVG 1.1//EN" "http://www.w3.org/Graphics/SVG/1.1/DTD/svg11.dtd">
<svg version="1.1" xmlns="http://www.w3.org/2000/svg" xmlns:xlink="http://www.w3.org/1999/xlink" x="0" y="0" width="2036" height="572" viewBox="0, 0, 2036, 572">
  <g id="Layer_1" transform="translate(-1119.441, 1716.778)">
    <path d="M1119.441,-1716.778 L3155.441,-1716.778 L3155.441,-1144.778 L1119.441,-1144.778 L1119.441,-1716.778 z" fill="#3A3A3A"/>
    <path d="M1461.496,-1509.192 L1448.49,-1469.981 L1521.342,-1469.981 L1521.342,-1469.987 L1654.065,-1469.987 L1667.076,-1509.192 L1461.496,-1509.192 z M1691.147,-1509.192 L1652.405,-1392.416 C1644.86,-1369.67 1662.536,-1352.364 1678.449,-1352.364 L1844.688,-1352.364 L1857.699,-1391.569 L1735.381,-1391.569 C1729.523,-1391.569 1726.333,-1395.659 1728.186,-1401.242 L1763.998,-1509.192 L1691.147,-1509.192 z M2609.742,-1509.192 L2557.705,-1352.364 L2630.563,-1352.364 C2647.906,-1404.641 2665.25,-1456.914 2682.594,-1509.192 L2609.742,-1509.192 z M2706.664,-1509.192 L2667.922,-1392.416 C2660.377,-1369.67 2678.053,-1352.364 2693.967,-1352.364 L2860.205,-1352.364 L2873.217,-1391.569 L2750.899,-1391.569 C2745.041,-1391.569 2741.851,-1395.659 2743.703,-1401.242 L2766.508,-1469.987 L2899.231,-1469.987 L2912.244,-1509.192 L2706.664,-1509.192 z M1951.821,-1509.186 C1932.983,-1509.186 1916.982,-1497.728 1911.114,-1480.035 L1907.778,-1469.981 L1980.619,-1469.981 L1985.973,-1469.981 L2040.5,-1469.981 L2027.494,-1430.774 L1972.973,-1430.774 L1967.617,-1430.774 L1894.776,-1430.774 L1868.762,-1352.364 L1941.604,-1352.364 L1954.61,-1391.569 L2014.487,-1391.569 L2001.481,-1352.364 L2074.332,-1352.364 L2126.364,-1509.186 L1951.821,-1509.186 z M1894.776,-1430.774 L1907.778,-1469.981 L1834.938,-1469.981 C1830.606,-1456.914 1826.268,-1443.841 1821.936,-1430.774 L1894.776,-1430.774 z M2181.487,-1509.186 C2162.649,-1509.186 2146.648,-1497.728 2140.78,-1480.035 L2124.844,-1431.996 C2123.189,-1427.006 2123.981,-1421.99 2127.098,-1417.735 C2130.22,-1413.48 2134.792,-1411.172 2140.11,-1411.172 L2250.658,-1411.172 L2246.573,-1398.856 C2245.105,-1394.431 2241.106,-1391.569 2236.399,-1391.569 L2111.436,-1391.569 L2098.422,-1352.364 L2272.967,-1352.364 C2291.805,-1352.364 2307.805,-1363.822 2313.674,-1381.514 L2329.61,-1429.553 C2331.264,-1434.543 2330.47,-1439.56 2327.354,-1443.815 C2324.232,-1448.07 2319.659,-1450.377 2314.342,-1450.377 L2203.789,-1450.377 L2207.873,-1462.694 C2209.341,-1467.118 2213.341,-1469.981 2218.053,-1469.981 L2343.018,-1469.981 L2356.03,-1509.186 L2181.487,-1509.186 z M2411.129,-1509.186 C2392.291,-1509.186 2376.291,-1497.728 2370.422,-1480.035 L2354.487,-1431.996 C2352.832,-1427.006 2353.626,-1421.99 2356.742,-1417.735 C2359.864,-1413.48 2364.437,-1411.172 2369.754,-1411.172 L2480.303,-1411.172 L2476.217,-1398.856 C2474.75,-1394.431 2470.75,-1391.569 2466.043,-1391.569 L2341.078,-1391.569 L2328.067,-1352.364 L2502.61,-1352.364 C2521.448,-1352.364 2537.448,-1363.822 2543.317,-1381.514 L2559.252,-1429.553 C2560.907,-1434.543 2560.115,-1439.56 2556.998,-1443.815 C2553.876,-1448.07 2549.304,-1450.377 2543.987,-1450.377 L2433.432,-1450.377 L2437.518,-1462.694 C2438.985,-1467.118 2442.985,-1469.981 2447.698,-1469.981 L2572.66,-1469.981 L2585.672,-1509.186 L2411.129,-1509.186 z M1375.639,-1469.981 C1371.307,-1456.914 1366.969,-1443.841 1362.637,-1430.774 L1435.479,-1430.774 L1448.479,-1469.981 L1375.639,-1469.981 z M1435.483,-1430.774 L1422.756,-1392.416 C1415.211,-1369.67 1432.886,-1352.364 1448.801,-1352.364 L1615.039,-1352.364 L1628.051,-1391.569 L1505.733,-1391.569 C1499.874,-1391.569 1496.683,-1395.659 1498.535,-1401.242 L1508.334,-1430.774 L1435.483,-1430.774 z" fill="#FFFFFF" id="path1"/>
  </g>
</svg>
