<?xml version="1.0" encoding="UTF-8"?>
<!DOCTYPE svg PUBLIC "-//W3C//DTD SVG 1.1//EN" "http://www.w3.org/Graphics/SVG/1.1/DTD/svg11.dtd">
<svg version="1.1" xmlns="http://www.w3.org/2000/svg" xmlns:xlink="http://www.w3.org/1999/xlink" x="0" y="0" width="892.18" height="197.01" viewBox="0, 0, 892.18, 197.01">
  <g id="Layer_1" transform="translate(-53.91, 329.97)">
    <path d="M313.71,-132.97 L107.44,-132.97 C77.82,-132.97 53.91,-156.88 53.91,-186.5 L53.91,-276.43 C53.91,-306.05 77.82,-329.96 107.44,-329.96 L313.71,-329.96 L313.71,-295.7 L88.17,-295.7 L88.17,-248.59 L313.71,-248.59 L313.71,-214.33 L88.17,-214.33 L88.17,-167.22 L313.71,-167.22 L313.71,-132.96 z" fill="#FFFFFF"/>
    <path d="M482.87,-201.84 L394.72,-132.96 L338.69,-132.96 L465.74,-232.17 L340.48,-329.95 L396.87,-329.95 L482.88,-262.5 C491.8,-255.36 498.23,-244.66 498.23,-232.17 C498.23,-219.68 491.81,-208.97 482.88,-201.84 z M661.31,-132.97 L604.92,-132.97 L517.13,-201.85 C508.21,-208.99 501.78,-219.69 501.78,-232.18 C501.78,-244.67 508.2,-255.38 517.13,-262.51 L603.14,-329.96 L659.17,-329.96 L533.91,-232.18 L661.31,-132.97 z" fill="#FFFFFF"/>
    <path d="M946.09,-191.85 L946.09,-183.29 C946.09,-155.45 922.18,-132.97 892.56,-132.97 L686.29,-132.97 L686.29,-167.23 L911.83,-167.23 L911.83,-214.34 L686.29,-214.34 L686.29,-248.6 L911.83,-248.6 L911.83,-295.71 L686.29,-295.71 L686.29,-329.97 L892.56,-329.97 C922.18,-329.97 945.02,-307.49 945.02,-279.65 L945.02,-271.08" fill="#FFFFFF"/>
  </g>
</svg>
