<?xml version="1.0" encoding="UTF-8"?>
<!DOCTYPE svg PUBLIC "-//W3C//DTD SVG 1.1//EN" "http://www.w3.org/Graphics/SVG/1.1/DTD/svg11.dtd">
<svg version="1.1" xmlns="http://www.w3.org/2000/svg" xmlns:xlink="http://www.w3.org/1999/xlink" x="0" y="0" width="49.346" height="21.192" viewBox="0, 0, 493.457, 211.923">
  <g id="Layer_2" transform="translate(-284.02, -715.743)">
    <g id="ExpertUpfitter_BW_KO">
      <path d="M377.501,759.977 L286.15,759.977 L284.02,757.172 L377.475,757.172 L377.501,759.977 z" fill="#FFFFFF"/>
      <path d="M315.786,722.73 L315.786,853.666 L312.981,855.588 L312.981,724.653 L315.786,722.73 z" fill="#FFFFFF"/>
      <path d="M468.8,855.874 L288.28,855.874 L286.072,853.095 L468.8,853.095 L468.8,855.874 z" fill="#FFFFFF"/>
      <path d="M777.244,855.874 L453.294,855.874 L450.618,853.095 L774.568,853.095 L777.244,855.874 z" fill="#FFFFFF"/>
      <path d="M777.477,760.289 L478.099,760.289 L478.047,757.484 L777.477,757.484 L777.477,760.289 z" fill="#FFFFFF"/>
      <path d="M751.659,770.029 L751.659,898.134 L748.854,900.03 L748.854,771.926 L751.659,770.029 z" fill="#FFFFFF"/>
      <path d="M338.28,835.9 L338.28,814.731 L372.67,814.731 L374.8,814.731 L374.8,812.601 L374.8,797.692 L374.8,795.562 L372.67,795.562 L338.28,795.562 L338.28,777.198 L375.345,777.198 L377.475,777.198 L377.475,775.094 L377.475,759.64 L377.475,757.51 L375.345,757.51 L316.747,757.51 L314.618,757.51 L314.618,759.64 L314.618,853.458 L314.618,855.588 L316.747,855.588 L376.306,855.588 L378.436,855.588 L378.436,853.458 L378.436,838.03 L378.436,835.9 L376.306,835.9 L338.28,835.9 z" fill="#FFFFFF"/>
      <path d="M441.19,805.77 L440.592,804.705 L439.372,804.705 L413.397,804.705 L412.177,804.705 L411.553,805.77 L384.099,852.523 L382.202,855.718 L408.177,855.718 L408.8,854.627 L423.969,827.38 C424.904,825.718 425.709,824.16 426.566,822.549 C427.346,824.367 428.125,825.952 428.878,827.432 L442.514,854.549 L443.086,855.718 L470.541,855.718 L468.644,852.523 z" fill="#FFFFFF"/>
      <path d="M509.762,757.51 L474.489,757.51 L474.489,855.588 L498.125,855.588 L498.125,820.757 L509.762,820.757 C532.203,820.757 546.723,808.289 546.723,788.991 C546.723,769.692 532.203,757.51 509.762,757.51 z M509.19,801.458 L498.125,801.458 L498.125,777.484 L509.19,777.484 C518.047,777.484 522.515,781.458 522.515,789.276 C522.515,797.094 518.047,801.458 509.19,801.458 z" fill="#FFFFFF"/>
      <path d="M577.528,835.9 L577.528,814.731 L613.892,814.731 L613.892,795.562 L577.528,795.562 L577.528,777.224 L616.723,777.224 L616.723,757.51 L553.788,757.51 L553.788,855.588 L617.606,855.588 L617.606,835.9 L577.528,835.9 z" fill="#FFFFFF"/>
      <path d="M681.789,813.952 C691.967,809.234 698.382,798.933 698.126,787.718 C698.126,769.354 684.074,757.51 662.282,757.51 L627.996,757.51 L627.996,855.588 L651.633,855.588 L651.633,818.367 L658.931,818.367 L678.828,854.497 L679.425,855.588 L707.217,855.588 L705.269,852.368 z M661.866,799.51 L651.633,799.51 L651.633,777.224 L661.866,777.224 C666.438,777.224 674.074,778.679 674.074,788.419 C674.074,798.159 666.438,799.51 661.866,799.51 z" fill="#FFFFFF"/>
      <path d="M775.218,757.51 L702.204,757.51 L702.204,777.484 L728.178,777.484 L728.178,855.588 L751.555,855.588 L751.555,777.484 L777.27,777.484 L777.27,757.51 z" fill="#FFFFFF"/>
      <path d="M412.332,801.458 L385.319,756.835 L407.086,756.835 C407.086,756.835 423.294,786.549 425.423,790.004 L426.177,790.004 C428.826,786.237 464.618,715.743 464.618,715.743 L491.112,715.743 L440.774,801.64 z" fill="#FFFFFF"/>
      <path d="M349.916,902.576 C349.916,910.368 346.54,914.524 339.864,914.524 C333.189,914.524 329.916,910.628 329.916,902.576 L329.916,860.316 L314.566,860.316 L314.566,904.29 C314.566,918.861 323.864,927.667 339.397,927.667 C354.93,927.667 364.54,918.861 364.54,904.29 L364.54,860.316 L349.916,860.316 z" fill="#FFFFFF"/>
      <path d="M394.748,860.316 L371.085,860.316 L371.085,926.42 L386.436,926.42 L386.436,902.757 L394.748,902.757 C409.839,902.757 419.579,894.394 419.579,881.485 C419.579,868.575 409.839,860.316 394.748,860.316 z M386.436,873.303 L394.384,873.303 C398.696,873.303 403.839,874.757 403.839,881.718 C403.839,888.679 398.644,890.342 394.384,890.342 L386.436,890.342 z" fill="#FFFFFF"/>
      <path d="M425.112,926.42 L440.462,926.42 L440.462,900.186 L464.8,900.186 L464.8,887.718 L440.462,887.718 L440.462,873.173 L466.618,873.173 L466.618,860.316 L425.112,860.316 L425.112,926.42 z" fill="#FFFFFF"/>
      <path d="M471.19,872.679 L478.385,872.679 L478.385,914.056 L471.19,914.056 L471.19,926.42 L500.904,926.42 L500.904,914.056 L493.71,914.056 L493.71,872.679 L500.904,872.679 L500.904,860.316 L471.19,860.316 L471.19,872.679 z" fill="#FFFFFF"/>
      <path d="M504.047,873.173 L521.684,873.173 L521.684,926.42 L537.008,926.42 L537.008,873.173 L554.541,873.173 L554.541,860.316 L504.047,860.316 L504.047,873.173 z" fill="#FFFFFF"/>
      <path d="M558.827,873.173 L576.463,873.173 L576.463,926.42 L591.814,926.42 L591.814,873.173 L609.347,873.173 L609.347,860.316 L558.827,860.316 L558.827,873.173 z" fill="#FFFFFF"/>
      <path d="M629.632,898.55 L654.542,898.55 L654.542,886.264 L629.632,886.264 L629.632,872.991 L656.36,872.991 L656.36,860.316 L614.308,860.316 L614.308,926.42 L657.035,926.42 L657.035,913.771 L629.632,913.771 L629.632,898.55 z" fill="#FFFFFF"/>
      <path d="M699.087,898.264 C706.094,895.178 710.552,888.177 710.386,880.524 C710.386,868.264 700.957,860.316 686.334,860.316 L663.243,860.316 L663.243,926.42 L678.827,926.42 L678.827,901.043 L684.412,901.043 L698.308,926.42 L716.334,926.42 z M678.827,872.991 L686.178,872.991 C689.425,872.991 694.88,874.03 694.88,881.017 C694.88,886.056 691.711,888.965 686.178,888.965 L678.827,888.965 z" fill="#FFFFFF"/>
    </g>
  </g>
</svg>
