<?xml version="1.0" encoding="UTF-8"?>
<!DOCTYPE svg PUBLIC "-//W3C//DTD SVG 1.1//EN" "http://www.w3.org/Graphics/SVG/1.1/DTD/svg11.dtd">
<svg version="1.1" xmlns="http://www.w3.org/2000/svg" xmlns:xlink="http://www.w3.org/1999/xlink" x="0" y="0" width="1080.001" height="471.667" viewBox="0, 0, 1080.001, 471.667">
  <defs>
    <linearGradient id="Gradient_1" gradientUnits="userSpaceOnUse" x1="413.146" y1="1065.655" x2="393.651" y2="1373.9">
      <stop offset="0" stop-color="#ECC6C6"/>
      <stop offset="1" stop-color="#FFFFFF"/>
    </linearGradient>
  </defs>
  <g id="Layer_1" transform="translate(108.001, -1020.333)">
    <path d="M-108,1020.333 L972,1020.333 L972,1452.333 L-108,1452.333 L-108,1020.333 z" fill="url(#Gradient_1)"/>
    <path d="M971.999,1401.937 C971.999,1401.937 972.666,1408.797 935.999,1410.452 C899.333,1412.108 899.999,1401.937 899.999,1401.937 C899.999,1401.937 863.333,1380.412 851.999,1393.422 C840.666,1406.431 812.666,1388.927 791.999,1393.422 C771.333,1397.916 753.999,1402.647 753.999,1402.647 C753.999,1402.647 681.999,1396.97 651.333,1400.754 C620.666,1404.539 595.333,1401.7 565.999,1385.616 C536.666,1369.531 457.999,1379.939 432.666,1391.293 C407.333,1402.646 330.26,1410.452 330.26,1410.452 C330.26,1410.452 291.333,1408.323 275.333,1400.754 C142.434,1401.937 126.782,1410.452 126.782,1410.452 C-29.74,1393.422 -61.044,1393.422 -61.044,1393.422 C-61.044,1393.422 -108.001,1403.593 -108.001,1403.593 C-108.001,1403.593 -108.001,1435.999 -108.001,1435.999 C-108.001,1435.999 971.999,1435.999 971.999,1435.999 L971.999,1401.937 z" fill="#FFE1E1"/>
    <path d="M-108,1411.013 C-108,1411.013 -108,1402.974 -71.333,1404.983 C-34.667,1406.991 -26,1411.838 -26,1411.838 C-26,1411.838 -1.333,1415.476 10,1431.258 C21.333,1447.04 57.333,1386.393 78,1391.845 C98.667,1397.297 142,1392.94 142,1392.94 C142,1392.94 178,1433.236 208.667,1437.827 C239.333,1442.418 268.667,1410.726 298,1391.213 C327.333,1371.7 406,1403.252 431.333,1417.026 C456.667,1430.799 511.333,1402.793 511.333,1402.793 C511.333,1402.793 572.667,1418.76 588.667,1409.578 C721.565,1411.013 768.667,1441.112 768.667,1441.112 C925.188,1420.451 925.043,1400.682 925.043,1400.682 C925.043,1400.682 972,1413.021 972,1413.021 C972,1413.021 972,1452.333 972,1452.333 C972,1452.333 -108,1452.333 -108,1452.333 L-108,1411.013 z" fill="#D59090"/>
    <path d="M-108,1445.333 L972,1445.333 L972,1492 L-108,1492 L-108,1445.333 z" fill="#460000"/>
  </g>
</svg>
