<?xml version="1.0" encoding="UTF-8"?>
<!DOCTYPE svg PUBLIC "-//W3C//DTD SVG 1.1//EN" "http://www.w3.org/Graphics/SVG/1.1/DTD/svg11.dtd">
<svg version="1.1" xmlns="http://www.w3.org/2000/svg" xmlns:xlink="http://www.w3.org/1999/xlink" x="0" y="0" width="1080.001" height="471.667" viewBox="0, 0, 1080.001, 471.667">
  <defs>
    <linearGradient id="Gradient_1" gradientUnits="userSpaceOnUse" x1="413.146" y1="1065.655" x2="393.651" y2="1373.9">
      <stop offset="0" stop-color="#ECC6C6"/>
      <stop offset="1" stop-color="#FFFFFF"/>
    </linearGradient>
    <linearGradient id="Gradient_2" gradientUnits="userSpaceOnUse" x1="432" y1="1492" x2="432" y2="1460.999">
      <stop offset="1" stop-color="#FFFFFF"/>
      <stop offset="0" stop-color="#D48486"/>
    </linearGradient>
  </defs>
  <g id="Layer_1" transform="translate(108.001, -1020.333)">
    <path d="M-108,1020.333 L972,1020.333 L972,1452.333 L-108,1452.333 L-108,1020.333 z" fill="url(#Gradient_1)"/>
    <path d="M971.999,1404.868 C971.999,1404.868 972.666,1416.172 935.999,1418.901 C899.333,1421.629 899.999,1404.868 899.999,1404.868 C899.999,1404.868 863.333,1369.397 851.999,1390.836 C840.666,1412.274 812.666,1383.43 791.999,1390.836 C771.333,1398.242 753.999,1406.038 753.999,1406.038 C753.999,1406.038 681.999,1396.683 651.333,1402.919 C620.666,1409.156 595.333,1404.478 565.999,1377.972 C536.666,1351.466 457.999,1368.617 432.666,1387.327 C407.333,1406.037 330.26,1418.901 330.26,1418.901 C330.26,1418.901 291.333,1415.393 275.333,1402.919 C142.434,1404.868 126.782,1418.901 126.782,1418.901 C-29.74,1390.835 -61.044,1390.835 -61.044,1390.835 C-61.044,1390.835 -108.001,1407.597 -108.001,1407.597 C-108.001,1407.597 -108.001,1460.999 -108.001,1460.999 C-108.001,1460.999 971.999,1460.999 971.999,1460.999 L971.999,1404.868 z" fill="#FFE1E1"/>
    <path d="M-108,1412.192 C-26,1413.214 -25,1436.499 10,1437.249 C45,1438 58,1398.937 78,1388.469 C98,1378 142,1389.824 142,1389.824 C142,1389.824 178,1439.697 208.667,1445.379 C239.333,1451.062 268.667,1411.837 298,1387.687 C327.333,1363.536 406,1402.587 431.333,1419.634 C456.667,1436.681 511.333,1402.019 511.333,1402.019 C511.333,1402.019 572.667,1421.781 588.667,1410.416 C721.565,1412.192 768.667,1449.444 768.667,1449.444 C925.188,1423.874 925.043,1399.407 925.043,1399.407 C925.043,1399.407 972,1414.678 972,1414.678 C972,1414.678 972,1463.333 972,1463.333 C972,1463.333 -108,1463.333 -108,1463.333 L-108,1412.192 z" fill="#D59090"/>
    <path d="M-108,1460.999 L972,1460.999 L972,1492 L-108,1492 L-108,1460.999 z" fill="url(#Gradient_2)"/>
  </g>
</svg>
