<?xml version="1.0" encoding="UTF-8"?>
<!DOCTYPE svg PUBLIC "-//W3C//DTD SVG 1.1//EN" "http://www.w3.org/Graphics/SVG/1.1/DTD/svg11.dtd">
<svg version="1.1" xmlns="http://www.w3.org/2000/svg" xmlns:xlink="http://www.w3.org/1999/xlink" x="0" y="0" width="1080.001" height="471.667" viewBox="0, 0, 1080.001, 471.667">
  <defs>
    <linearGradient id="Gradient_1" gradientUnits="userSpaceOnUse" x1="413.146" y1="-26.678" x2="393.651" y2="281.567">
      <stop offset="0" stop-color="#A6DAE3"/>
      <stop offset="1" stop-color="#FFFFFF"/>
    </linearGradient>
  </defs>
  <g id="Layer_1" transform="translate(108.001, 72)">
    <path d="M-108,-72 L972,-72 L972,360 L-108,360 L-108,-72 z" fill="url(#Gradient_1)"/>
    <path d="M971.999,309.604 C971.999,309.604 972.666,316.463 935.999,318.119 C899.333,319.775 899.999,309.604 899.999,309.604 C899.999,309.604 863.333,288.078 851.999,301.088 C840.666,314.098 812.666,296.594 791.999,301.088 C771.333,305.582 753.999,310.313 753.999,310.313 C753.999,310.313 681.999,304.636 651.333,308.421 C620.666,312.205 595.333,309.367 565.999,293.282 C536.666,277.197 457.999,287.605 432.666,298.959 C407.333,310.313 330.26,318.119 330.26,318.119 C330.26,318.119 291.333,315.99 275.333,308.421 C142.434,309.604 126.782,318.119 126.782,318.119 C-29.74,301.088 -61.044,301.088 -61.044,301.088 C-61.044,301.088 -108.001,311.259 -108.001,311.259 C-108.001,311.259 -108.001,343.665 -108.001,343.665 C-108.001,343.665 971.999,343.665 971.999,343.665 L971.999,309.604 z" fill="#FFF9E3"/>
    <path d="M-108,318.679 C-108,318.679 -108,310.641 -71.333,312.649 C-34.667,314.658 -26,319.505 -26,319.505 C-26,319.505 -1.333,323.143 10,338.925 C21.333,354.707 57.333,294.06 78,299.512 C98.667,304.964 142,300.606 142,300.606 C142,300.606 178,340.903 208.667,345.494 C239.333,350.085 268.667,318.392 298,298.88 C327.333,279.367 406,310.919 431.333,324.692 C456.667,338.466 511.333,310.46 511.333,310.46 C511.333,310.46 572.667,326.427 588.667,317.245 C721.565,318.679 768.667,348.778 768.667,348.778 C925.188,328.118 925.043,308.349 925.043,308.349 C925.043,308.349 972,320.688 972,320.688 C972,320.688 972,360 972,360 C972,360 -108,360 -108,360 L-108,318.679 z" fill="#FFF4CE"/>
    <path d="M-108,331.359 C-108,331.359 -108.667,337.127 -72,338.519 C-35.333,339.911 -36,331.359 -36,331.359 C-36,331.359 0.667,313.259 12,324.198 C23.333,335.138 51.333,320.419 72,324.198 C92.667,327.977 110,331.955 110,331.955 C110,331.955 182,327.182 212.667,330.364 C243.333,333.546 268.667,331.16 298,317.634 C327.333,304.109 406,312.861 431.333,322.408 C456.667,331.955 533.739,338.519 533.739,338.519 C533.739,338.519 572.667,336.729 588.667,330.364 C721.565,331.359 737.217,338.519 737.217,338.519 C893.739,324.198 925.043,324.198 925.043,324.198 C925.043,324.198 972,332.751 972,332.751 C972,332.751 972,360 972,360 C972,360 -108,360 -108,360 L-108,331.359 z" fill="#FFEB9E"/>
    <path d="M-108,353 L972,353 L972,399.667 L-108,399.667 L-108,353 z" fill="#FFEB9E"/>
    <path d="M215.333,310.683" fill="#E9BE9E"/>
  </g>
</svg>
