<svg width="121" height="22" viewBox="0 0 121 22" fill="none" xmlns="http://www.w3.org/2000/svg">
<path fill-rule="evenodd" clip-rule="evenodd" d="M16.2017 7.37305H22.08V18.893C22.0826 19.2997 22.0044 19.7028 21.8499 20.079C21.6955 20.4552 21.4679 20.7969 21.1803 21.0845C20.8928 21.3721 20.551 21.5997 20.1748 21.7541C19.7986 21.9085 19.3955 21.9868 18.9889 21.9842H16.2081L16.2017 7.37305Z" fill="white"/>
<path fill-rule="evenodd" clip-rule="evenodd" d="M3.0881 6.07412e-05H5.86889V14.6144H0.000107295V3.09445C-0.00329415 2.68768 0.0742102 2.2843 0.228112 1.90775C0.382014 1.5312 0.60924 1.18901 0.896582 0.901076C1.18392 0.613139 1.52565 0.385203 1.90187 0.230522C2.2781 0.0758405 2.68132 -0.00249853 3.0881 6.07412e-05Z" fill="white"/>
<path fill-rule="evenodd" clip-rule="evenodd" d="M0 16.8223H5.86878V21.987H3.04319C2.23631 21.9845 1.46325 21.6626 0.893 21.0918C0.322748 20.5209 0.00168759 19.7475 0 18.9407V16.8223Z" fill="white"/>
<path fill-rule="evenodd" clip-rule="evenodd" d="M8.12158 0H13.9488V9.62557H8.12158V0Z" fill="white"/>
<path fill-rule="evenodd" clip-rule="evenodd" d="M8.12158 12.3613H13.9488V21.9869H8.12158V12.3613Z" fill="white"/>
<path fill-rule="evenodd" clip-rule="evenodd" d="M16.2017 0H18.9825C19.8023 -3.93736e-06 20.5888 0.325031 21.1694 0.903867C21.75 1.4827 22.0775 2.26812 22.08 3.08799V5.16478H16.2017V0Z" fill="white"/>
<path fill-rule="evenodd" clip-rule="evenodd" d="M39.4847 21.9871V12.6752H31.6767V21.9871H26.8735V0H31.6767V8.50238H39.4399V0H44.2399V21.9871H39.4847Z" fill="white"/>
<path fill-rule="evenodd" clip-rule="evenodd" d="M61.2128 11.1712C60.9242 10.2518 60.4332 9.40873 59.776 8.70396C59.1481 8.02861 58.3849 7.49323 57.5361 7.13277C56.6426 6.76753 55.6852 6.58475 54.7201 6.59517C53.6887 6.58452 52.6644 6.76574 51.6993 7.12957C50.8255 7.52029 50.0213 8.05099 49.3185 8.70076C48.6256 9.3907 48.0811 10.2151 47.7185 11.1232C47.3126 12.1515 47.1136 13.2498 47.1329 14.3551C47.1013 15.476 47.3006 16.5914 47.7185 17.6319C48.0848 18.5392 48.6515 19.352 49.3761 20.0095C50.0925 20.6632 50.9324 21.167 51.8465 21.4911C52.8155 21.8142 53.8298 21.9806 54.8513 21.9839C56.1536 22.0139 57.4448 21.7377 58.6208 21.1775C59.6734 20.6531 60.5712 19.8634 61.2256 18.8863L57.9936 16.7775C57.6638 17.2297 57.2333 17.5989 56.7361 17.8559C56.1657 18.141 55.5334 18.2796 54.8961 18.2591C54.483 18.254 54.0739 18.1782 53.6865 18.0351C53.3187 17.8854 52.9715 17.6897 52.6529 17.4527C52.3433 17.2229 52.0841 16.9322 51.8913 16.5983C51.6856 16.2583 51.5629 15.8746 51.5329 15.4783H61.6736C61.7108 15.3006 61.7258 15.119 61.7184 14.9375V14.3551C61.7211 13.2736 61.5504 12.1987 61.2128 11.1712ZM51.5649 12.5696C51.563 12.1943 51.6554 11.8246 51.8337 11.4944C52.005 11.1587 52.2323 10.8546 52.5057 10.5952C52.8015 10.3487 53.1355 10.152 53.4945 10.0128C53.8974 9.86962 54.3213 9.79393 54.7489 9.78876C55.6481 9.78876 56.3489 10.0576 56.8129 10.5952C57.2641 11.1317 57.5042 11.8143 57.488 12.5152L51.5649 12.5696Z" fill="white"/>
<path fill-rule="evenodd" clip-rule="evenodd" d="M77.5999 10.8576C77.4016 9.99384 77.0196 9.18291 76.4799 8.48002C75.9605 7.84519 75.2779 7.36394 74.5055 7.08802C73.5389 6.75937 72.5211 6.60761 71.5007 6.64002C70.3491 6.64827 69.2085 6.8651 68.1343 7.28002C67.055 7.68275 66.0733 8.30989 65.2543 9.12002L67.6799 11.7696C68.1589 11.3631 68.6854 11.016 69.2479 10.736C69.8286 10.4309 70.4768 10.2769 71.1327 10.288C71.7689 10.2517 72.3994 10.4248 72.9279 10.7808C73.4239 11.1008 73.6479 11.6352 73.6479 12.352V12.576C72.5977 12.57 71.5482 12.6298 70.5055 12.7552C69.5053 12.8661 68.5241 13.1082 67.5871 13.4752C66.7598 13.7858 66.0206 14.2932 65.4335 14.9536C64.8367 15.6513 64.5319 16.5521 64.5823 17.4688C64.5654 18.2164 64.7348 18.9565 65.0751 19.6224C65.3676 20.1721 65.7826 20.6473 66.2879 21.0112C66.7846 21.3749 67.3494 21.635 67.9487 21.776C68.5218 21.9167 69.109 21.9919 69.6991 22C70.5021 21.9963 71.2959 21.8286 72.0319 21.5072C72.7001 21.2192 73.264 20.7334 73.6479 20.1152H73.7375V22H77.955V14.2688C77.9671 13.1219 77.8479 11.9774 77.5999 10.8576ZM73.7407 15.84C73.7728 16.6296 73.4988 17.4011 72.9759 17.9936C72.4831 18.5312 71.7652 18.8 70.8223 18.8C70.5811 18.7922 70.3411 18.7623 70.1055 18.7104C69.8816 18.6484 69.6665 18.5581 69.4655 18.4416C69.2844 18.3278 69.1313 18.1747 69.0175 17.9936C68.8905 17.7767 68.8283 17.5279 68.8383 17.2768C68.8287 17.0858 68.8596 16.8949 68.9291 16.7168C68.9986 16.5386 69.1051 16.3772 69.2415 16.2432C69.5196 15.9726 69.8587 15.7728 70.2303 15.6608C70.6817 15.5153 71.1491 15.4251 71.6223 15.392C72.1151 15.3472 72.6527 15.3024 73.1455 15.3024H73.7311L73.7407 15.84Z" fill="white"/>
<path fill-rule="evenodd" clip-rule="evenodd" d="M90.2686 10.4349C90.0446 10.3901 89.8622 10.3453 89.683 10.3005C89.5038 10.2557 89.2798 10.2557 89.1006 10.2557C88.5552 10.2466 88.0159 10.3707 87.5294 10.6173C87.1295 10.8249 86.7783 11.115 86.499 11.4685C86.2314 11.7771 86.0454 12.1479 85.9582 12.5469C85.8408 12.8778 85.7803 13.2262 85.779 13.5773V21.9869H81.1582V6.53093H85.5998V8.64293H85.6446C85.9864 7.92056 86.513 7.30128 87.171 6.84774C87.8435 6.38229 88.6411 6.13128 89.459 6.12774C89.6404 6.12051 89.822 6.13555 89.9998 6.17254C90.1532 6.17623 90.3048 6.20655 90.4478 6.26214L90.2686 10.4349Z" fill="white"/>
<path fill-rule="evenodd" clip-rule="evenodd" d="M99.8719 10.3299V16.0387C99.8445 16.5889 99.9696 17.1359 100.234 17.6195C100.458 17.9907 100.95 18.1283 101.577 18.1283C101.818 18.1342 102.059 18.1192 102.297 18.0835C102.519 18.0563 102.735 17.9937 102.937 17.8979L102.982 21.5171C102.591 21.6674 102.184 21.7747 101.769 21.8371C101.282 21.9315 100.787 21.9786 100.291 21.9779C99.4823 21.9886 98.6774 21.8631 97.9103 21.6067C97.3136 21.3978 96.7864 21.0279 96.3871 20.5379C95.9788 20.0534 95.6866 19.4821 95.5327 18.8675C95.3468 18.1562 95.2564 17.4234 95.2639 16.6883V10.3299H93.0239V6.6243H95.2639V2.67871H99.7951V6.6243H103.072V10.3299H99.8719Z" fill="white"/>
<path fill-rule="evenodd" clip-rule="evenodd" d="M115.414 21.9871V14.1344C115.408 13.7436 115.378 13.3535 115.325 12.9664C115.266 12.6242 115.158 12.2923 115.005 11.9808C114.839 11.7146 114.622 11.4848 114.365 11.3056C114.057 11.1115 113.697 11.0176 113.334 11.0368C112.976 11.0186 112.62 11.0916 112.298 11.2488C111.976 11.4061 111.7 11.6425 111.494 11.936C111.037 12.5746 110.811 13.3501 110.854 14.1344V21.9871H106.259V0H110.88V9.33117H110.925C111.288 8.68431 111.814 8.14375 112.451 7.76318C113.204 7.29276 114.079 7.05766 114.966 7.08798C115.806 7.06492 116.638 7.24959 117.389 7.62558C118.004 7.954 118.541 8.41371 118.959 8.9722C119.378 9.53068 119.669 10.1743 119.811 10.8576C119.988 11.5617 120.079 12.285 120.08 13.0112V21.9871H115.414Z" fill="white"/>
</svg>
