<svg xmlns="http://www.w3.org/2000/svg" xmlns:xlink="http://www.w3.org/1999/xlink" width="136" height="32" viewBox="0 0 136 32">
    <defs>
        <rect id="a" width="32" height="32" rx="4"/>
        <linearGradient id="c" x1="0%" y1="0%" y2="100%">
            <stop offset="0%" stop-color="#4E657D"/>
            <stop offset="100%" stop-color="#263547"/>
        </linearGradient>
        <linearGradient id="d" x1="50%" x2="50%" y1="0%" y2="100%">
            <stop offset="0%" stop-color="#33B6FF"/>
            <stop offset="100%" stop-color="#177FFF"/>
        </linearGradient>
    </defs>
    <g fill="none" fill-rule="evenodd">
        <g>
            <mask id="b" fill="#fff">
                <use xlink:href="#a"/>
            </mask>
            <use fill="#FFF" xlink:href="#a"/>
            <g mask="url(#b)">
                <path fill="url(#c)" d="M25.333 10.667h9.333V32h-9.333z" transform="translate(-1.333)"/>
                <path fill="url(#d)" d="M25.333 0h9.333v8h-9.333zM0 0h9.333v21.333H0z" transform="translate(-1.333)"/>
                <path fill="url(#c)" d="M0 24h9.333v8H0z" transform="translate(-1.333)"/>
                <path fill="url(#d)" d="M12 0h10.667v14.667H12z" transform="translate(-1.333)"/>
                <path fill="url(#c)" d="M12 17.333h10.667V32H12z" transform="translate(-1.333)"/>
            </g>
        </g>
        <path fill="#263547" d="M54.96 26.225v-8.18h-7.59v8.18h-4.703V6.66h4.703v7.406h7.59V6.66h4.703v19.565H54.96zm18.936-8.456c0-.719-.225-1.336-.674-1.852-.45-.516-1.123-.774-2.022-.774-.44 0-.843.07-1.21.208a3.131 3.131 0 0 0-.962.566 2.8 2.8 0 0 0-.66.843 2.476 2.476 0 0 0-.275 1.009h5.803zm4.152 1.74v.553c0 .184-.009.36-.027.525h-9.928c.036.387.15.737.343 1.05.193.313.44.585.743.816.302.23.642.41 1.018.538.375.13.765.194 1.168.194.715 0 1.32-.134 1.816-.4a3.596 3.596 0 0 0 1.21-1.037l3.135 1.99a6.351 6.351 0 0 1-2.544 2.169c-1.054.506-2.278.76-3.672.76a8.723 8.723 0 0 1-2.915-.484 7.071 7.071 0 0 1-2.406-1.41 6.525 6.525 0 0 1-1.623-2.279c-.394-.903-.591-1.934-.591-3.095 0-1.124.192-2.142.577-3.054a6.905 6.905 0 0 1 1.568-2.32 6.984 6.984 0 0 1 2.338-1.48 7.96 7.96 0 0 1 2.915-.524c1.008 0 1.934.17 2.778.511.843.34 1.567.834 2.172 1.478.605.645 1.077 1.428 1.417 2.35.339.92.508 1.97.508 3.15zm11.758.719h-.578c-.495 0-.995.023-1.499.07a6.14 6.14 0 0 0-1.347.262 2.49 2.49 0 0 0-.977.566c-.256.249-.385.576-.385.981 0 .258.06.48.18.663.118.185.27.332.453.442.183.111.394.19.632.235.239.046.468.07.688.07.917 0 1.618-.254 2.104-.76.486-.507.729-1.193.729-2.06v-.469zm-8.278-5.886a7.892 7.892 0 0 1 2.818-1.741 9.618 9.618 0 0 1 3.287-.58c1.155 0 2.131.142 2.929.428.798.286 1.444.728 1.939 1.326.495.6.857 1.355 1.086 2.266.23.912.344 1.995.344 3.247v6.937h-4.125V24.76h-.083c-.348.571-.875 1.013-1.581 1.326a5.598 5.598 0 0 1-2.297.47 6.99 6.99 0 0 1-1.705-.22 4.983 4.983 0 0 1-1.609-.72 3.884 3.884 0 0 1-1.196-1.326c-.312-.553-.468-1.234-.468-2.045 0-.995.27-1.796.812-2.404.54-.608 1.237-1.078 2.09-1.41.853-.33 1.801-.552 2.846-.662a29.026 29.026 0 0 1 3.053-.166v-.221c0-.682-.238-1.184-.715-1.506-.477-.323-1.063-.484-1.76-.484-.642 0-1.26.138-1.856.415a5.923 5.923 0 0 0-1.527.994l-2.282-2.459zm25.673 1.824a3.498 3.498 0 0 0-.591-.11 5.919 5.919 0 0 0-.564-.028c-.605 0-1.114.11-1.527.331a3.11 3.11 0 0 0-.99.802 3.04 3.04 0 0 0-.536 1.022c-.11.369-.165.69-.165.967v7.075h-4.51V12.463h4.345v1.99h.055a4.46 4.46 0 0 1 1.485-1.714c.642-.442 1.384-.663 2.228-.663.183 0 .362.01.536.028.174.018.316.046.426.083l-.192 3.979zm8.874-.304v5.25c0 .645.123 1.129.37 1.451.248.322.693.484 1.335.484.22 0 .453-.019.701-.056.248-.036.454-.092.619-.165l.055 3.316c-.312.11-.706.207-1.183.29a8.332 8.332 0 0 1-1.43.124c-.917 0-1.687-.115-2.31-.345-.624-.23-1.123-.562-1.499-.995a3.906 3.906 0 0 1-.811-1.548 7.537 7.537 0 0 1-.248-2.003v-5.803h-2.2v-3.4h2.173v-3.62h4.428v3.62h3.217v3.4h-3.217zm15.387 10.363v-7.462c0-.386-.027-.755-.082-1.105a2.63 2.63 0 0 0-.317-.926 1.784 1.784 0 0 0-.618-.635c-.257-.157-.587-.235-.99-.235-.789 0-1.394.28-1.816.843-.421.562-.632 1.257-.632 2.086v7.434h-4.51V5.333h4.51v8.87h.055c.311-.552.806-1.045 1.485-1.478.678-.433 1.494-.649 2.448-.649.935 0 1.718.166 2.351.497.633.332 1.146.76 1.54 1.285.394.525.679 1.129.853 1.81.174.682.261 1.364.261 2.045v8.512h-4.538z"/>
    </g>
</svg>
