<?xml version="1.0" encoding="UTF-8"?>
<!DOCTYPE svg PUBLIC "-//W3C//DTD SVG 1.1//EN" "http://www.w3.org/Graphics/SVG/1.1/DTD/svg11.dtd">
<svg version="1.1" xmlns="http://www.w3.org/2000/svg" xmlns:xlink="http://www.w3.org/1999/xlink" x="0" y="0" width="2036" height="572" viewBox="0, 0, 2036, 572">
  <g id="Layer_1" transform="translate(-1119.441, 2358)">
    <path d="M1119.441,-2358 L3155.441,-2358 L3155.441,-1786 L1119.441,-1786 L1119.441,-2358 z" fill="#3A3A3A"/>
    <g>
      <path d="M1687.432,-2070.963 L1710.614,-1961.64 L1658.749,-1961.64 L1651.623,-1995.104 C1642.242,-2039.302 1603.276,-2070.873 1558.086,-2070.873 L1558.086,-2070.873 L1558.086,-1961.55 L1508.746,-1961.55 L1508.746,-2182.45 L1558.176,-2182.45 L1558.176,-2120.392 L1670.385,-2120.392 L1670.385,-2182.45 L1719.814,-2182.45 L1719.814,-2070.963 L1687.432,-2070.963 z" fill="#FFFFFF"/>
      <path d="M1930.883,-2182.45 L1930.883,-2041.467 L1901.928,-2041.467 L1921.772,-1961.73 L1869.907,-1961.73 L1850.063,-2041.467 L1795.673,-2041.467 L1795.673,-1961.73 L1746.243,-1961.73 L1746.243,-2182.45 L1930.883,-2182.45 z M1881.543,-2090.266 L1881.543,-2133.02 L1795.763,-2133.02 L1795.763,-2090.266 L1881.543,-2090.266 z" fill="#FFFFFF"/>
      <path d="M1957.492,-2049.315 L1957.492,-2182.45 L2145.108,-2182.45 L2145.108,-2049.044 L1957.492,-2049.315 z M2095.678,-2098.384 L2095.678,-2133.02 L2006.831,-2133.02 L2006.831,-2098.384 L2095.678,-2098.384 z" fill="#FFFFFF"/>
      <path d="M2221.056,-2182.45 L2221.056,-2155.931 L2299.981,-2112.635 L2299.981,-2182.45 L2349.411,-2182.45 L2349.411,-1961.64 L2299.981,-1961.64 L2299.981,-2052.472 L2221.056,-2095.768 L2221.056,-1961.64 L2171.626,-1961.64 L2171.626,-2182.45 L2221.056,-2182.45 z" fill="#FFFFFF"/>
      <path d="M2375.93,-2049.315 L2375.93,-2182.45 L2563.546,-2182.45 L2563.546,-2049.044 L2375.93,-2049.315 z M2514.116,-2098.384 L2514.116,-2133.02 L2425.269,-2133.02 L2425.269,-2098.384 L2514.116,-2098.384 z" fill="#FFFFFF"/>
      <path d="M2766.135,-1961.64 L2375.839,-1961.64 L2375.839,-2010.799 L2717.247,-2010.799 L2717.247,-2048.323 L2590.065,-2048.323 L2590.065,-2182.45 L2766.135,-2182.45 L2766.135,-2182.45 C2766.135,-2155.209 2744.036,-2133.02 2716.706,-2133.02 L2639.404,-2133.02 L2639.404,-2096.85 L2766.135,-2096.85 L2766.135,-1961.64 z" fill="#FFFFFF"/>
      <path d="M1957.492,-2010.799 L2145.108,-2010.799 L2145.108,-1961.64 L1957.492,-1961.64 z" fill="#FFFFFF"/>
    </g>
  </g>
</svg>
