<?xml version="1.0" encoding="UTF-8"?>
<!DOCTYPE svg PUBLIC "-//W3C//DTD SVG 1.1//EN" "http://www.w3.org/Graphics/SVG/1.1/DTD/svg11.dtd">
<svg version="1.1" xmlns="http://www.w3.org/2000/svg" xmlns:xlink="http://www.w3.org/1999/xlink" x="0" y="0" width="395.731" height="69.478" viewBox="0, 0, 1319.104, 231.594">
  <g id="Layer_1" transform="translate(-90.448, -634.203)">
    <g>
      <path d="M277.959,751.154 L302.276,865.796 L247.855,865.796 L240.401,830.656 C230.569,784.306 189.648,751.154 142.266,751.154 L142.266,865.796 L90.448,865.796 L90.448,634.203 L142.266,634.203 L142.266,699.336 L260.014,699.336 L260.014,634.203 L311.828,634.203 L311.828,751.154 z" fill="#FFFFFF"/>
      <path d="M481.522,686.023 L391.491,686.023 L391.491,730.897 L481.522,730.897 z M481.522,730.896 M533.34,634.203 L533.34,782.129 L502.944,782.129 L523.789,865.797 L469.363,865.797 L448.523,782.129 L391.491,782.129 L391.491,865.797 L339.672,865.797 L339.672,634.203 z" fill="#FFFFFF"/>
      <path d="M706.219,686.023 L613.004,686.023 L613.004,722.348 L706.219,722.348 z M706.219,722.348 M561.185,773.878 L561.185,634.203 L758.038,634.203 L758.038,774.167 z" fill="#FFFFFF"/>
      <path d="M837.705,634.203 L837.705,661.993 L920.497,707.444 L920.497,634.203 L972.316,634.203 L972.316,865.796 L920.497,865.796 L920.497,770.555 L837.705,725.105 L837.705,865.796 L785.886,865.796 L785.886,634.203 z" fill="#FFFFFF"/>
      <path d="M1145.19,686.023 L1051.975,686.023 L1051.975,722.348 L1145.19,722.348 z M1145.19,722.348 M1000.156,773.878 L1000.156,634.203 L1197.009,634.203 L1197.009,774.167 z" fill="#FFFFFF"/>
      <path d="M1409.552,865.797 L1000.156,865.797 L1000.156,814.267 L1358.315,814.267 L1358.315,774.895 L1224.858,774.895 L1224.858,634.204 L1409.552,634.204 C1409.552,662.823 1386.351,686.023 1357.733,686.023 L1276.676,686.023 L1276.676,723.943 L1409.552,723.943 z" fill="#FFFFFF"/>
      <path d="M758.038,865.797 L561.185,865.797 L561.185,814.267 L758.038,814.267 z" fill="#FFFFFF"/>
    </g>
  </g>
</svg>
