<?xml version="1.0" encoding="UTF-8"?>
<!DOCTYPE svg PUBLIC "-//W3C//DTD SVG 1.1//EN" "http://www.w3.org/Graphics/SVG/1.1/DTD/svg11.dtd">
<svg version="1.1" xmlns="http://www.w3.org/2000/svg" xmlns:xlink="http://www.w3.org/1999/xlink" x="0" y="0" width="57.233" height="18.143" viewBox="0, 0, 190.775, 60.478">
  <g id="Layer_1" transform="translate(-144.612, -209.761)">
    <g>
      <path d="M334.287,250.687 C335.059,252.389 335.388,254.232 335.388,256.095 C335.388,263.189 330.988,267.787 324.303,269.488 C321.3,270.252 318.218,270.246 315.143,270.237 C308.989,270.22 302.835,270.238 296.682,270.238 L300.558,258.165 L317.32,258.165 C319.057,258.165 320.324,257.946 321.117,257.51 C321.727,257.172 322.033,256.67 322.033,256.004 C322.033,254.512 316.529,254.118 315.381,254.005 C314.468,253.827 313.547,253.625 312.63,253.471 C308.731,252.818 304.438,251.474 301.533,248.681 C299.664,246.885 298.385,244.671 298.011,242.092 L320.224,242.142 C323.579,242.604 327.41,243.692 330.144,245.639 C331.879,246.873 333.293,248.495 334.287,250.687 M297.895,226.098 L332.989,226.098 L328.068,238.171 L297.895,238.171 z" fill="#FFFFFF"/>
      <path d="M154.964,261.271 L154.964,270.238 L147.483,270.238 C145.957,270.238 144.699,269.109 144.612,267.697 L144.612,261.271 L144.612,241.364 L154.964,241.364 z M194.413,228.271 C194.413,226.367 192.754,224.809 190.724,224.809 L170.916,224.809 L165.958,224.809 C165.434,224.787 164.922,224.78 164.42,224.788 L164.42,224.809 L146.15,224.809 C145.626,224.787 145.114,224.78 144.612,224.788 L144.612,236.835 L158.674,236.871 C160.615,236.875 162.034,236.72 162.9,237.201 C163.562,237.569 163.901,238.324 163.901,239.848 L163.901,240.228 L163.901,261.271 L163.901,270.238 L167.292,270.238 L171.924,270.238 L174.607,270.238 C174.607,259.083 174.605,247.931 174.605,236.782 C176.189,236.826 181.804,236.699 182.708,237.201 C183.37,237.57 183.709,238.324 183.709,239.848 L183.709,240.228 L183.709,261.271 L183.709,270.238 L191.733,270.238 C193.207,270.238 194.413,269.106 194.413,267.723 L194.413,267.395 L194.413,261.271 L194.413,236.309 L194.413,235.632 z" fill="#FFFFFF"/>
      <path d="M190.725,224.809 C192.754,224.809 194.414,226.367 194.414,228.271 L194.414,235.632 L194.414,236.309 L194.414,261.271 L194.414,267.395 L194.414,267.723 C194.414,269.106 193.207,270.238 191.734,270.238 L183.709,270.238 L183.709,261.271 L183.709,240.227 L183.709,239.848 C183.709,238.324 183.371,237.57 182.708,237.201 C181.805,236.699 176.189,236.826 174.605,236.782 C174.605,247.931 174.608,259.083 174.608,270.238 L171.926,270.238 L167.292,270.238 L163.901,270.238 L163.901,261.271 L163.901,240.227 L163.901,239.848 C163.901,238.324 163.562,237.569 162.9,237.201 C162.036,236.72 160.616,236.875 158.675,236.871 L144.613,236.835 L144.613,224.788 C145.115,224.78 145.627,224.787 146.15,224.809 L164.421,224.809 L164.421,224.788 C164.922,224.78 165.435,224.787 165.958,224.809 L170.916,224.809 z M154.965,241.364 L144.613,241.364 L144.613,261.271 L144.613,267.697 C144.7,269.109 145.958,270.238 147.484,270.238 L154.965,270.238 L154.965,261.271 z" fill="#FFFFFF"/>
      <path d="M211.271,224.785 L204.021,224.785 C202.145,224.785 200.611,226.319 200.611,228.194 L200.611,251.082 C200.579,251.797 200.579,252.488 200.611,253.159 L200.611,253.86 L200.657,253.86 C201.087,259.081 203.51,263.001 207.66,266.288 C210.816,268.789 214.094,270.238 218.104,270.238 L249.107,270.238 C245.155,267.28 244.181,264.438 243.517,260.83 L224.409,260.83 C220.836,260.83 218.702,260.486 215.716,258.199 C214.664,257.392 214.19,256.396 213.594,255.279 C212.974,254.114 212.601,252.81 212.485,251.447 C212.149,247.55 212.437,243.529 212.49,239.508 C212.514,237.713 212.341,236.402 212.815,235.603 C213.179,234.991 213.922,234.678 215.423,234.678 L236.521,234.678 L236.521,242.936 L215.796,242.936 C215.435,245.455 215.111,249.634 216.316,252.504 L236.521,252.504 L236.521,252.509 L242.694,252.509 C244.157,252.509 245.354,251.312 245.354,249.849 L245.354,227.262 C245.354,225.9 244.238,224.785 242.876,224.785 L242.554,224.785 L236.521,224.785 L211.937,224.785 z" fill="#FFFFFF"/>
      <path d="M263.206,209.761 L250.496,215.968 L250.496,255.199 C250.496,261.666 252.689,267.521 258.998,270.238 L274.462,270.238 L274.531,259.554 L273.207,259.981 C271.881,260.408 269.227,260.788 266.992,260.553 C265.633,260.408 264.484,260.052 264.1,259.35 C263.4,258.087 263.206,256.534 263.206,255.109 L263.206,238.172 L273.556,238.172 L274.56,238.172 L274.56,226.098 L263.206,226.098 z" fill="#FFFFFF"/>
      <path d="M292.502,226.098 L279.403,226.098 L279.403,238.172 L291.496,238.172 L292.502,238.172 z M292.296,242.121 L279.403,242.064 L279.403,269.262 L279.403,270.045 L292.296,270.045 z" fill="#FFFFFF"/>
    </g>
  </g>
</svg>
