<?xml version="1.0" encoding="UTF-8"?>
<!DOCTYPE svg PUBLIC "-//W3C//DTD SVG 1.1//EN" "http://www.w3.org/Graphics/SVG/1.1/DTD/svg11.dtd">
<svg version="1.1" xmlns="http://www.w3.org/2000/svg" xmlns:xlink="http://www.w3.org/1999/xlink" x="0" y="0" width="2036" height="572" viewBox="0, 0, 2036, 572">
  <g id="Layer_1" transform="translate(1064, 1716.778)">
    <g id="AI2">
      <g>
        <path d="M392.296,-1404.098 C395.885,-1396.186 397.414,-1387.618 397.414,-1378.958 C397.414,-1345.981 376.96,-1324.607 345.885,-1316.7 C331.925,-1313.149 317.598,-1313.177 303.304,-1313.219 C274.697,-1313.297 246.09,-1313.214 217.487,-1313.214 L235.505,-1369.336 L313.424,-1369.336 C321.498,-1369.336 327.388,-1370.354 331.074,-1372.38 C333.91,-1373.952 335.333,-1376.285 335.333,-1379.381 C335.333,-1386.317 309.747,-1388.148 304.41,-1388.674 C300.166,-1389.501 295.885,-1390.44 291.622,-1391.156 C273.498,-1394.192 253.541,-1400.439 240.037,-1413.422 C231.349,-1421.771 225.404,-1432.063 223.665,-1444.052 L326.923,-1443.819 C342.519,-1441.672 360.328,-1436.614 373.037,-1427.563 C381.102,-1421.827 387.675,-1414.287 392.296,-1404.098 M223.126,-1518.401 L386.262,-1518.401 L363.387,-1462.279 L223.126,-1462.279 z" fill="#FFFFFF"/>
        <path d="M-441.292,-1354.897 L-441.292,-1313.214 L-476.068,-1313.214 C-483.162,-1313.214 -489.009,-1318.462 -489.414,-1325.026 L-489.414,-1354.897 L-489.414,-1447.436 L-441.292,-1447.436 z M-257.912,-1508.299 C-257.912,-1517.15 -265.624,-1524.393 -275.06,-1524.393 L-367.139,-1524.393 L-390.186,-1524.393 C-392.622,-1524.495 -395.002,-1524.527 -397.336,-1524.49 L-397.336,-1524.393 L-482.264,-1524.393 C-484.7,-1524.495 -487.08,-1524.527 -489.414,-1524.49 L-489.414,-1468.489 L-424.046,-1468.322 C-415.023,-1468.303 -408.427,-1469.024 -404.401,-1466.788 C-401.324,-1465.077 -399.748,-1461.568 -399.748,-1454.483 L-399.748,-1452.717 L-399.748,-1354.897 L-399.748,-1313.214 L-383.985,-1313.214 L-362.453,-1313.214 L-349.981,-1313.214 C-349.981,-1365.068 -349.99,-1416.909 -349.99,-1468.736 C-342.627,-1468.531 -316.525,-1469.121 -312.323,-1466.788 C-309.246,-1465.073 -307.67,-1461.568 -307.67,-1454.483 L-307.67,-1452.717 L-307.67,-1354.897 L-307.67,-1313.214 L-270.37,-1313.214 C-263.518,-1313.214 -257.912,-1318.476 -257.912,-1324.905 L-257.912,-1326.43 L-257.912,-1354.897 L-257.912,-1470.934 L-257.912,-1474.081 z" fill="#FFFFFF"/>
        <path d="M-275.059,-1524.392 C-265.627,-1524.392 -257.91,-1517.15 -257.91,-1508.299 L-257.91,-1474.081 L-257.91,-1470.934 L-257.91,-1354.897 L-257.91,-1326.429 L-257.91,-1324.904 C-257.91,-1318.475 -263.521,-1313.213 -270.368,-1313.213 L-307.673,-1313.213 L-307.673,-1354.897 L-307.673,-1452.721 L-307.673,-1454.483 C-307.673,-1461.567 -309.244,-1465.072 -312.326,-1466.787 C-316.524,-1469.121 -342.63,-1468.531 -349.993,-1468.735 C-349.993,-1416.908 -349.979,-1365.068 -349.979,-1313.213 L-362.447,-1313.213 L-383.988,-1313.213 L-399.751,-1313.213 L-399.751,-1354.897 L-399.751,-1452.721 L-399.751,-1454.483 C-399.751,-1461.567 -401.327,-1465.077 -404.405,-1466.787 C-408.421,-1469.023 -415.022,-1468.303 -424.045,-1468.321 L-489.412,-1468.489 L-489.412,-1524.49 C-487.079,-1524.527 -484.699,-1524.494 -482.268,-1524.392 L-397.334,-1524.392 L-397.334,-1524.49 C-395.005,-1524.527 -392.62,-1524.494 -390.189,-1524.392 L-367.142,-1524.392 z M-441.291,-1447.435 L-489.412,-1447.435 L-489.412,-1354.897 L-489.412,-1325.025 C-489.008,-1318.462 -483.16,-1313.213 -476.066,-1313.213 L-441.291,-1313.213 L-441.291,-1354.897 z" fill="#FFFFFF"/>
        <path d="M-179.55,-1524.506 L-213.252,-1524.506 C-221.973,-1524.506 -229.104,-1517.375 -229.104,-1508.659 L-229.104,-1402.263 C-229.252,-1398.939 -229.252,-1395.727 -229.104,-1392.608 L-229.104,-1389.349 L-228.89,-1389.349 C-226.891,-1365.079 -215.628,-1346.857 -196.336,-1331.577 C-181.665,-1319.951 -166.427,-1313.215 -147.787,-1313.215 L-3.668,-1313.215 C-22.039,-1326.966 -26.567,-1340.177 -29.653,-1356.949 L-118.478,-1356.949 C-135.087,-1356.949 -145.007,-1358.548 -158.887,-1369.179 C-163.778,-1372.93 -165.981,-1377.56 -168.752,-1382.753 C-171.634,-1388.168 -173.368,-1394.23 -173.907,-1400.566 C-175.469,-1418.681 -174.13,-1437.373 -173.884,-1456.065 C-173.772,-1464.409 -174.576,-1470.503 -172.373,-1474.218 C-170.681,-1477.062 -167.227,-1478.517 -160.249,-1478.517 L-62.174,-1478.517 L-62.174,-1440.13 L-158.516,-1440.13 C-160.194,-1428.42 -161.7,-1408.994 -156.098,-1395.652 L-62.174,-1395.652 L-62.174,-1395.629 L-33.479,-1395.629 C-26.678,-1395.629 -21.114,-1401.194 -21.114,-1407.994 L-21.114,-1512.991 C-21.114,-1519.322 -26.302,-1524.506 -32.633,-1524.506 L-34.13,-1524.506 L-62.174,-1524.506 L-176.454,-1524.506 z" fill="#FFFFFF"/>
        <path d="M61.872,-1594.345 L2.789,-1565.492 L2.789,-1383.125 C2.789,-1353.062 12.984,-1325.845 42.311,-1313.215 L114.196,-1313.215 L114.517,-1362.88 L108.363,-1360.895 C102.199,-1358.91 89.861,-1357.144 79.472,-1358.236 C73.154,-1358.91 67.813,-1360.565 66.028,-1363.828 C62.774,-1369.7 61.872,-1376.919 61.872,-1383.543 L61.872,-1462.275 L109.985,-1462.275 L114.652,-1462.275 L114.652,-1518.402 L61.872,-1518.402 z" fill="#FFFFFF"/>
        <path d="M198.06,-1518.402 L137.169,-1518.402 L137.169,-1462.276 L193.384,-1462.276 L198.06,-1462.276 z M197.102,-1443.919 L137.169,-1444.184 L137.169,-1317.753 L137.169,-1314.113 L197.102,-1314.113 z" fill="#FFFFFF"/>
        <path d="M198.06,-1518.402 L137.169,-1518.402 L137.169,-1462.276 L193.384,-1462.276 L198.06,-1462.276 z" fill="#FFFFFF"/>
      </g>
    </g>
  </g>
</svg>
