<?xml version="1.0" encoding="UTF-8"?>
<!DOCTYPE svg PUBLIC "-//W3C//DTD SVG 1.1//EN" "http://www.w3.org/Graphics/SVG/1.1/DTD/svg11.dtd">
<svg version="1.1" xmlns="http://www.w3.org/2000/svg" xmlns:xlink="http://www.w3.org/1999/xlink" x="0" y="0" width="465" height="465" viewBox="0, 0, 465, 465">
  <g id="Layer_1" transform="translate(-73.5, 488)">
    <path d="M306,-23 C177.594,-23 73.5,-127.094 73.5,-255.5 C73.5,-383.906 177.594,-488 306,-488 C434.406,-488 538.5,-383.906 538.5,-255.5 C538.5,-127.094 434.406,-23 306,-23 z" fill="#FFFFFF"/>
    <path d="M365.678,-281.571 L406.538,-281.571 C408.794,-281.571 410.624,-280.969 410.624,-280.227 L410.624,-198.915 C410.624,-198.173 408.794,-197.571 406.538,-197.571 L365.678,-197.571 C363.421,-197.571 361.592,-198.173 361.592,-198.915 L361.592,-280.227 C361.592,-280.969 363.421,-281.571 365.678,-281.571 z" fill="#000000"/>
    <path d="M205.459,-281.571 L246.293,-281.571 C248.548,-281.571 250.376,-280.969 250.376,-280.227 L250.376,-198.915 C250.376,-198.173 248.548,-197.571 246.293,-197.571 L205.459,-197.571 C203.204,-197.571 201.376,-198.173 201.376,-198.915 L201.376,-280.227 C201.376,-280.969 203.204,-281.571 205.459,-281.571 z" fill="#000000"/>
    <path d="M201.376,-301 L201.376,-301 C201.376,-294.136 207.249,-288.571 214.492,-288.571 L290.5,-288.571 C297.744,-288.571 303.616,-294.136 303.616,-301 L303.616,-301 C303.616,-307.864 297.744,-313.429 290.5,-313.429 L214.492,-313.429 C207.249,-313.429 201.376,-307.864 201.376,-301 z" fill="#000000"/>
    <path d="M308.384,-301 L308.384,-301 C308.384,-294.136 314.256,-288.571 321.5,-288.571 L397.508,-288.571 C404.751,-288.571 410.624,-294.136 410.624,-301 L410.624,-301 C410.624,-307.864 404.751,-313.429 397.508,-313.429 L321.5,-313.429 C314.256,-313.429 308.384,-307.864 308.384,-301 z" fill="#000000"/>
  </g>
</svg>
