<?xml version="1.0" encoding="UTF-8"?>
<!DOCTYPE svg PUBLIC "-//W3C//DTD SVG 1.1//EN" "http://www.w3.org/Graphics/SVG/1.1/DTD/svg11.dtd">
<svg version="1.1" xmlns="http://www.w3.org/2000/svg" xmlns:xlink="http://www.w3.org/1999/xlink" x="0" y="0" width="46.586" height="28.315" viewBox="0, 0, 465.86, 283.15">
  <g id="Layer_2" transform="translate(-303.14, -377.85)">
    <path d="M307.45,544.7 L325.96,544.7 L325.96,605.81 L307.45,605.81 z" fill="#FFFFFF"/>
    <path d="M354.35,573.01 L354.35,605.81 L335.85,605.81 L335.85,544.7 L354.9,544.7 L376.14,575.49 L376.14,544.7 L394.64,544.7 L394.64,605.81 L376.89,605.81 z" fill="#FFFFFF"/>
    <path d="M404.54,544.7 L431.84,544.7 C451.08,544.7 465.37,555.7 465.37,575.21 C465.37,594.72 451.08,605.81 431.93,605.81 L404.54,605.81 z M431.84,589.7 C441.09,589.7 446.59,582.92 446.59,575.22 C446.59,566.98 441.83,560.84 431.93,560.84 L423.05,560.84 L423.05,589.65 z" fill="#FFFFFF"/>
    <path d="M471.95,544.7 L490.73,544.7 L490.73,580.07 C490.73,585.93 493.73,590.6 501.36,590.6 C508.99,590.6 511.89,585.93 511.89,580.07 L511.89,544.7 L530.68,544.7 L530.68,580.65 C530.68,595.85 521.97,606.94 501.36,606.94 C480.75,606.94 471.95,595.85 471.95,580.74 z" fill="#FFFFFF"/>
    <path d="M545.5,583.46 C550.809,588.521 557.865,591.339 565.2,591.33 C568.68,591.33 571.98,590.14 571.98,587.76 C571.98,585.38 569.41,584.19 563.37,583.09 C553.29,581.26 537.9,578.88 537.9,563.58 C537.9,553.22 546.51,543.79 563.27,543.79 C573.27,543.79 582.27,546.63 589.2,552.31 L579.31,565.41 C574.384,561.723 568.458,559.613 562.31,559.36 C557.72,559.36 556.72,561.01 556.72,562.57 C556.72,564.95 559.19,565.78 565.72,566.88 C575.79,568.62 590.72,571.55 590.72,585.66 C590.72,599.12 580.72,606.91 564.33,606.91 C551.33,606.91 542.44,603.06 535.93,597.2 z" fill="#FFFFFF"/>
    <path d="M609.8,560.83 L593.4,560.83 L593.4,544.7 L644.61,544.7 L644.61,560.83 L628.31,560.83 L628.31,605.83 L609.8,605.83 z" fill="#FFFFFF"/>
    <path d="M676.39,586.21 L669.7,586.21 L669.7,605.81 L651.19,605.81 L651.19,544.7 L683.81,544.7 C698.1,544.7 705.81,554.23 705.81,565.7 C705.81,576.24 699.67,581.83 694.81,584.21 L705.9,605.83 L684.82,605.83 z M680.97,560.1 L669.7,560.1 L669.7,570.81 L680.97,570.81 C684.08,570.81 686.97,568.81 686.97,565.41 C686.97,562.01 684.08,560.1 680.97,560.1 z" fill="#FFFFFF"/>
    <path d="M727.77,581.53 L704.87,544.7 L725.66,544.7 L737.02,565.32 L748.2,544.7 L769,544.7 L746.28,581.53 L746.28,605.81 L727.77,605.81 z" fill="#FFFFFF"/>
    <path d="M335.58,650.35 L313.14,650.35 L309.22,660.17 L303.14,660.17 L320.93,615.91 L327.76,615.91 L345.61,660.17 L339.51,660.17 z M314.74,645.44 L333.91,645.44 L324.36,620.82 z" fill="#FFFFFF"/>
    <path d="M353.68,649.75 C357.216,653.743 362.287,656.039 367.62,656.06 C375.51,656.06 378.03,651.81 378.03,648.42 C378.03,643.12 372.66,641.66 366.82,640.06 C359.72,638.21 351.82,636.22 351.82,627.52 C351.82,620.22 358.32,615.25 367.02,615.25 C373.79,615.25 379.02,617.5 382.74,621.42 L379.43,625.42 C376.115,621.901 371.452,619.969 366.62,620.11 C361.31,620.11 357.53,622.96 357.53,627.11 C357.53,631.56 362.64,632.88 368.28,634.41 C375.51,636.34 383.74,638.59 383.74,647.88 C383.74,654.32 379.36,660.88 367.41,660.88 C359.72,660.88 354.08,657.96 350.41,653.88 z" fill="#FFFFFF"/>
    <path d="M395.21,649.75 C398.743,653.741 403.81,656.036 409.14,656.06 C417.03,656.06 419.55,651.81 419.55,648.42 C419.55,643.12 414.18,641.66 408.34,640.06 C401.24,638.21 393.34,636.22 393.34,627.52 C393.34,620.22 399.84,615.25 408.54,615.25 C415.31,615.25 420.54,617.5 424.27,621.42 L420.95,625.42 C417.626,621.92 412.965,620.006 408.14,620.16 C402.83,620.16 399.05,623.01 399.05,627.16 C399.05,631.61 404.16,632.93 409.8,634.46 C417.03,636.39 425.26,638.64 425.26,647.93 C425.26,654.37 420.88,660.93 408.94,660.93 C401.24,660.93 395.6,658.01 391.94,653.93 z" fill="#FFFFFF"/>
    <path d="M456.32,615.18 C469.39,615.18 478.32,625 478.32,638.07 C478.32,651.14 469.43,660.97 456.32,660.97 C443.21,660.97 434.32,651.15 434.32,638.07 C434.32,624.99 443.14,615.18 456.32,615.18 z M456.32,620.09 C446.32,620.09 440.06,627.72 440.06,638.09 C440.06,648.46 446.36,656.09 456.32,656.09 C466.28,656.09 472.58,648.39 472.58,638.09 C472.58,627.79 466.21,620.09 456.32,620.09 z" fill="#FFFFFF"/>
    <path d="M487.76,638.07 C487.76,624.47 497.76,615.18 510.32,615.18 C517.11,615.007 523.52,618.31 527.32,623.94 L522.67,626.53 C519.862,622.489 515.251,620.083 510.33,620.09 C500.84,620.09 493.48,627.52 493.48,638.09 C493.48,648.66 500.84,656.09 510.33,656.09 C515.253,656.118 519.87,653.707 522.66,649.65 L527.38,652.24 C523.66,657.24 518.38,661 510.32,661 C497.78,660.97 487.76,651.65 487.76,638.07 z" fill="#FFFFFF"/>
    <path d="M537.05,615.91 L542.56,615.91 L542.56,660.17 L537.05,660.17 z" fill="#FFFFFF"/>
    <path d="M583.43,650.35 L561,650.35 L557.14,660.17 L551.04,660.17 L568.82,615.91 L575.66,615.91 L593.51,660.17 L587.4,660.17 z M562.6,645.44 L581.78,645.44 L572.22,620.82 z" fill="#FFFFFF"/>
    <path d="M608.38,620.82 L594.38,620.82 L594.38,615.91 L627.96,615.91 L627.96,620.82 L613.88,620.82 L613.88,660.17 L608.38,660.17 z" fill="#FFFFFF"/>
    <path d="M637.9,615.91 L643.41,615.91 L643.41,660.17 L637.9,660.17 z" fill="#FFFFFF"/>
    <path d="M676.58,615.18 C689.65,615.18 698.58,625 698.58,638.07 C698.58,651.14 689.68,660.97 676.58,660.97 C663.48,660.97 654.58,651.15 654.58,638.07 C654.58,624.99 663.44,615.18 676.58,615.18 z M676.58,620.09 C666.58,620.09 660.32,627.72 660.32,638.09 C660.32,648.46 666.63,656.09 676.58,656.09 C686.53,656.09 692.84,648.39 692.84,638.09 C692.84,627.79 686.47,620.09 676.58,620.09 z" fill="#FFFFFF"/>
    <path d="M715.32,624.47 L715.32,660.17 L709.81,660.17 L709.81,615.91 L715.46,615.91 L740.94,650.91 L740.94,615.91 L746.44,615.91 L746.44,660.17 L741.14,660.17 z" fill="#FFFFFF"/>
    <path d="M382.29,448.794 L408.673,448.794 C420.467,448.794 429.348,441.357 429.348,429.771 C429.348,418.185 420.467,410.761 408.673,410.761 L332.618,410.761 L316.403,377.85 L419.127,378.11 C448.501,378.11 468.058,399.032 468.058,427.522 C468.058,454.672 451.037,469.131 434.471,473.032 L467.706,529.296 L426.162,529.296 L382.277,448.846 z" fill="#FFFFFF"/>
    <path d="M350.796,529.4 L309.395,377.928 L382.771,529.387 L350.796,529.4 z" fill="#FFFFFF"/>
    <path d="M577.413,529.374 L663.896,378.76 L621.402,378.76 L563.018,480.678 L504.635,378.76 L462.141,378.76 L548.624,529.374 L577.413,529.374 z" fill="#FFFFFF"/>
    <path d="M336.779,529.387 L305.65,390.424 L308.979,529.374 L336.779,529.387 z" fill="#FFFFFF"/>
  </g>
</svg>
