<?xml version="1.0" encoding="UTF-8"?>
<!DOCTYPE svg PUBLIC "-//W3C//DTD SVG 1.1//EN" "http://www.w3.org/Graphics/SVG/1.1/DTD/svg11.dtd">
<svg version="1.1" xmlns="http://www.w3.org/2000/svg" xmlns:xlink="http://www.w3.org/1999/xlink" x="0" y="0" width="2036" height="572" viewBox="0, 0, 2036, 572">
  <g id="Layer_1" transform="translate(1064, 2358)">
    <g>
      <path d="M-457.134,-2162.21 L-523.705,-2040.28 L-697.36,-2040.28 L-630.457,-2162.21 L-738.647,-2162.21 L-732.687,-2146.916 L-732.664,-2146.874 L-801.098,-2021.086 L-789.707,-2007.278 L-497.909,-2007.278 C-467.461,-2007.278 -439.428,-2023.899 -424.801,-2050.629 L-363.703,-2162.21 z" fill="#FFFFFE"/>
      <path d="M602.972,-2126.153 L589.317,-2101.157 L415.599,-2101.353 L430.647,-2128.834 L601.554,-2128.834 C602.151,-2128.834 602.703,-2128.505 602.992,-2127.948 C603.303,-2127.395 603.283,-2126.73 602.972,-2126.153 M707.841,-2157.246 C706.177,-2160.348 703.161,-2162.21 699.77,-2162.21 L341.315,-2162.21 L347.275,-2146.916 L279.885,-2023.57 C276.404,-2021.196 273.28,-2019.361 270.707,-2018.004 L270.685,-2018.004 C266.275,-2015.657 263.529,-2014.701 263.484,-2014.685 L260.538,-2013.684 L270.928,-2007.3 L270.973,-2007.28 L364.23,-2007.28 L389.074,-2052.798 L368.417,-2068.094 L571.234,-2068.094 L547.101,-2023.834 C537.416,-2017.163 530.374,-2014.728 530.306,-2014.701 L527.357,-2013.684 L538.061,-2007.28 L631.293,-2007.28 L707.794,-2147.34 C709.525,-2150.422 709.525,-2154.121 707.841,-2157.246" fill="#FFFFFE"/>
      <path d="M326.257,-2157.235 C324.578,-2160.346 321.566,-2162.203 318.193,-2162.203 L-223.354,-2162.21 L-210.635,-2129.28 L-85.886,-2129.28 L-134.466,-2040.343 L-314.483,-2040.343 L-247.841,-2162.167 L-355.436,-2162.167 L-349.475,-2146.874 L-416.868,-2023.543 C-426.329,-2017.053 -433.201,-2014.686 -433.266,-2014.686 L-436.213,-2013.658 L-425.775,-2007.262 L-152.526,-2007.262 L-106.94,-1917.79 L7.123,-2128.834 L7.366,-2129.28 L220.177,-2129.282 C220.773,-2129.282 221.32,-2128.942 221.609,-2128.396 C221.918,-2127.828 221.907,-2127.172 221.595,-2126.604 L207.727,-2101.186 L66.668,-2101.184 L49.645,-2068.085 L118.629,-2068.085 L190.05,-2007.3 L283.255,-2007.3 L224.95,-2056.976 L296.885,-2093.65 L326.226,-2147.327 C327.921,-2150.431 327.935,-2154.126 326.257,-2157.235" fill="#FFFFFE"/>
    </g>
  </g>
</svg>
