<?xml version="1.0" encoding="UTF-8"?>
<!DOCTYPE svg PUBLIC "-//W3C//DTD SVG 1.1//EN" "http://www.w3.org/Graphics/SVG/1.1/DTD/svg11.dtd">
<svg version="1.1" xmlns="http://www.w3.org/2000/svg" xmlns:xlink="http://www.w3.org/1999/xlink" x="0" y="0" width="200.968" height="32.526" viewBox="0, 0, 669.894, 108.42">
  <g id="white_text" transform="translate(-142.994, -446.789)">
    <g>
      <path d="M295.57,446.789 L266.04,500.875 L189.01,500.875 L218.687,446.789 L170.696,446.789 L173.34,453.573 L173.35,453.592 L142.994,509.389 L148.047,515.514 L277.483,515.514 C290.989,515.514 303.424,508.141 309.912,496.284 L337.014,446.789 z" fill="#FFFFFE"/>
      <path d="M765.812,462.783 L759.755,473.871 L682.697,473.784 L689.372,461.594 L765.183,461.594 C765.448,461.594 765.693,461.74 765.821,461.987 C765.959,462.232 765.95,462.527 765.812,462.783 M812.33,448.991 C811.592,447.615 810.254,446.789 808.75,446.789 L649.746,446.789 L652.39,453.573 L622.497,508.287 C620.953,509.34 619.567,510.154 618.426,510.756 L618.416,510.756 C616.46,511.797 615.242,512.221 615.222,512.228 L613.915,512.672 L618.524,515.504 L618.544,515.513 L659.911,515.513 L670.931,495.322 L661.768,488.537 L751.734,488.537 L741.029,508.17 C736.733,511.129 733.609,512.209 733.579,512.221 L732.271,512.672 L737.019,515.513 L778.375,515.513 L812.309,453.385 C813.077,452.018 813.077,450.377 812.33,448.991" fill="#FFFFFE"/>
      <path d="M643.067,448.996 C642.322,447.616 640.986,446.792 639.49,446.792 L399.27,446.789 L404.912,461.396 L460.248,461.396 L438.699,500.847 L358.847,500.847 L388.408,446.808 L340.681,446.808 L343.325,453.592 L313.431,508.299 C309.234,511.178 306.186,512.228 306.157,512.228 L304.85,512.684 L309.48,515.521 L430.688,515.521 L450.909,555.209 L501.505,461.594 L501.613,461.396 L596.012,461.395 C596.276,461.395 596.519,461.546 596.647,461.788 C596.784,462.04 596.779,462.331 596.641,462.583 L590.489,473.858 L527.918,473.859 L520.367,488.541 L550.967,488.541 L582.648,515.504 L623.992,515.504 L598.129,493.469 L630.038,477.201 L643.053,453.391 C643.805,452.014 643.811,450.375 643.067,448.996" fill="#FFFFFE"/>
    </g>
  </g>
</svg>
