<svg xmlns="http://www.w3.org/2000/svg" width="24" height="24" viewBox="0 0 24 24">
  <path d="M22.5 5l-4.7 4.7c-.5-.9-1.2-1.7-2-2.4L19 2.5c.5-.5.5-1.4 0-2l-2.1-2.1c-.5-.5-1.4-.5-2 0l-4.7 4.7c-.7-.8-1.5-1.5-2.4-2L5 .5c-.6 0-1.1.5-1.1 1.1V7H.5c-.6 0-1.1.5-1.1 1.1v2.1c0 .6.5 1.1 1.1 1.1H4v5.1c0 .6.5 1.1 1.1 1.1h2.1c.6 0 1.1-.5 1.1-1.1v-5.1h5.1c.6 0 1.1-.5 1.1-1.1V8.2c0-.6-.5-1.1-1.1-1.1h-5.1V2.5c0-.6-.5-1.1-1.1-1.1H7v3.5c-.9.5-1.7 1.2-2.4 2L.5 9c-.5.5-.5 1.4 0 2l2.1 2.1c.5.5 1.4.5 2 0l4.7-4.7c.8.7 1.5 1.5 2.4 2L9 22.5c-.5.5-.5 1.4 0 2l2.1 2.1c.5.5 1.4.5 2 0l4.7-4.7c.7.8 1.5 1.5 2.4 2l2.1 2.1c.5.5 1.4.5 2 0l2.1-2.1c.5-.5.5-1.4 0-2L19 15c-.9-.5-1.7-1.2-2-2l4.7-4.7c.5-.5.5-1.4 0-2l-2.1-2.1c-.6-.6-1.5-.6-2.1-.1z"/>
</svg>